<svg id="Layer_1" enable-background="new 0 0 128 128" height="512" viewBox="0 0 128 128" width="512" xmlns="http://www.w3.org/2000/svg" class="icon-poli">
	<path d="m112.34 52.213c.023-.262.035-.527.053-.791.013-.189.028-.377.038-.567.031-.604.05-1.21.05-1.813 0-19.113-15.543-34.91-34.647-35.215-9.355-.143-18.309 3.474-25.155 10.198-5.745 5.643-9.318 12.798-10.33 20.493h-3.667c-.552 0-1 .447-1 1v4.605c-1.082.339-2.125.771-3.119 1.288l-3.253-3.254c-.188-.188-.442-.293-.707-.293s-.52.105-.707.293l-6.738 6.739c-.391.391-.391 1.023 0 1.414l3.253 3.254c-.519.994-.95 2.038-1.288 3.118h-4.605c-.552 0-1 .447-1 1v9.529c0 .553.448 1 1 1h4.605c.338 1.08.77 2.125 1.289 3.119l-3.254 3.254c-.188.188-.293.441-.293.707s.105.52.293.707l6.738 6.738c.391.391 1.023.391 1.414 0l3.254-3.254c.995.519 2.039.95 3.119 1.289v4.604c0 .553.448 1 1 1h9.53c.552 0 1-.447 1-1v-4.604c1.08-.339 2.124-.771 3.119-1.289l3.254 3.254c.391.391 1.023.391 1.414 0l4.454-4.454c.94 1.735 1.72 3.584 2.311 5.535l.488 1.609c-1.01.45-1.719 1.46-1.719 2.637v8.324c0 5.049 3.404 9.466 8.204 10.8v.25c0 2.612 2.125 4.737 4.737 4.737h3.577c2.612 0 4.737-2.125 4.737-4.737v-.25c4.8-1.335 8.204-5.751 8.204-10.8v-8.324c0-1.176-.708-2.186-1.719-2.637l.611-2.017c1.592-5.254 4.572-9.773 8.617-13.071.473-.385.931-.784 1.382-1.191.146-.132.287-.269.431-.403.3-.28.596-.564.886-.854.164-.164.324-.33.485-.496.258-.269.511-.542.761-.819.165-.183.33-.365.491-.551.233-.27.458-.546.683-.823.159-.196.322-.389.477-.587.26-.334.509-.677.756-1.021.283-.393.555-.791.821-1.194.119-.18.241-.359.357-.542.197-.311.385-.626.572-.943.066-.112.137-.219.201-.332.006-.011.006-.023.011-.034.807-1.404 1.521-2.857 2.125-4.359.001-.003.003-.005.005-.008l.444-1.18c.217-.602.418-1.21.602-1.824.039-.131.086-.26.124-.392.102-.356.188-.718.279-1.078.065-.255.139-.508.197-.763.001-.004 0-.007 0-.011.349-1.526.588-3.083.732-4.66.001-.019.014-.037.016-.06z" fill="#e6e7e8"/><path d="m73.818 10.828c-17.654-.281-32.755 13.453-34.587 30.691h4.982v5.354c1.52.411 2.961 1.008 4.296 1.776l3.783-3.783 6.738 6.738-3.783 3.783c.767 1.335 1.364 2.776 1.776 4.296h5.354v9.529h-5.354c-.411 1.521-1.008 2.961-1.776 4.296l3.783 3.783-1.369 1.369c1.29 2.146 2.327 4.451 3.06 6.868l.802 2.647h23.479l.926-3.054c1.603-5.291 4.657-10.064 8.942-13.557 7.695-6.272 12.612-15.821 12.612-26.524-.001-18.711-15.022-33.916-33.664-34.212z" fill="#f4c342"/><path d="m81.092 53.443c0-4.324-3.506-7.83-7.83-7.83s-7.83 3.506-7.83 7.83c0 3.468 2.257 6.405 5.38 7.434v27.3h5.159v-27.395c2.988-1.104 5.121-3.968 5.121-7.339z" fill="#fff"/><path d="m61.423 88.176c-1.043 0-1.889.846-1.889 1.889v8.324c0 4.952 3.526 9.077 8.204 10.011v1.04c0 2.064 1.673 3.737 3.737 3.737h3.577c2.064 0 3.737-1.673 3.737-3.737v-1.04c4.678-.934 8.204-5.058 8.204-10.011v-8.324c0-1.043-.846-1.889-1.889-1.889z" fill="#CC0000"/><path d="m39.448 77.241c-7.065 0-12.792-5.727-12.792-12.792s5.727-12.792 12.792-12.792 12.792 5.727 12.792 12.792c0 7.064-5.727 12.792-12.792 12.792z" fill="#fff"/><path d="m62.377 69.213v-9.529h-5.354c-.411-1.52-1.008-2.961-1.776-4.296l3.783-3.783-6.738-6.738-3.783 3.783c-1.335-.768-2.776-1.364-4.296-1.776v-5.354h-9.529v5.354c-1.52.411-2.961 1.008-4.296 1.776l-3.783-3.783-6.738 6.738 3.783 3.783c-.767 1.335-1.364 2.776-1.776 4.296h-5.354v9.529h5.354c.411 1.52 1.008 2.961 1.776 4.296l-3.783 3.784 6.738 6.738 3.783-3.783c1.335.767 2.776 1.364 4.296 1.776v5.354h9.529v-5.354c1.52-.412 2.961-1.008 4.296-1.776l3.783 3.783 6.738-6.738-3.783-3.784c.767-1.335 1.364-2.776 1.776-4.296zm-22.929 8.028c-7.065 0-12.792-5.727-12.792-12.792s5.727-12.792 12.792-12.792 12.792 5.727 12.792 12.792c0 7.064-5.727 12.792-12.792 12.792z" fill="#fff"/><path d="m39.458 51.657v25.583c6.335-.005 11.578-4.619 12.591-10.668.106-.754.172-1.523.181-2.31-.1-6.974-5.774-12.599-12.772-12.605z" fill="#e67028"/><path d="m55.247 55.387 3.783-3.783-6.738-6.738-3.783 3.783c-1.335-.768-2.776-1.364-4.296-1.776v-5.354h-9.529v5.354c-1.354.366-2.64.888-3.85 1.538-.149.08-.3.154-.446.238l-2.283-2.283-5.238 5.238 3.266 3.266c.308.308.367.774.166 1.16-.489.938-.897 1.924-1.218 2.95-.13.415-.503.704-.938.704h-2.268-2.354v9.529h2.354 2.263c.437 0 .813.291.944.708.321 1.023.727 2.006 1.215 2.942.202.388.142.858-.167 1.168l-3.262 3.262 5.238 5.238 2.283-2.283c1.335.768 2.776 1.364 4.296 1.776v5.354h9.529v-5.354c1.52-.412 2.961-1.008 4.296-1.776l3.783 3.783 6.738-6.738-3.783-3.783c.767-1.335 1.364-2.776 1.776-4.296h5.354v-9.529h-5.354c-.413-1.521-1.009-2.962-1.777-4.298zm-15.799 21.854c-7.065 0-12.792-5.727-12.792-12.792s5.727-12.792 12.792-12.792 12.792 5.727 12.792 12.792-5.727 12.792-12.792 12.792z" fill="#6dc9f7"/><g fill="#3a2c60"><path d="m73.834 9.827c-9.36-.147-18.309 3.473-25.155 10.199-5.745 5.643-9.321 12.798-10.332 20.493h-3.664c-.552 0-1 .447-1 1v4.605c-1.082.339-2.125.771-3.119 1.288l-3.253-3.254c-.188-.188-.442-.293-.707-.293s-.52.105-.707.293l-6.738 6.739c-.391.391-.391 1.023 0 1.414l3.253 3.254c-.519.994-.95 2.038-1.288 3.118h-4.605c-.552 0-1 .447-1 1v9.529c0 .553.448 1 1 1h4.605c.338 1.08.77 2.124 1.288 3.119l-3.253 3.254c-.391.391-.391 1.023 0 1.414l6.738 6.738c.391.391 1.023.391 1.414 0l3.253-3.254c.996.519 2.04.95 3.119 1.289v4.604c0 .553.448 1 1 1h9.529c.552 0 1-.447 1-1v-4.604c1.08-.339 2.124-.771 3.119-1.289l3.254 3.254c.391.391 1.023.391 1.414 0l4.44-4.44c.942 1.732 1.734 3.571 2.325 5.521l.488 1.609c-1.01.45-1.719 1.46-1.719 2.637v8.324c0 5.049 3.404 9.465 8.204 10.8v.25c0 2.612 2.125 4.737 4.737 4.737h3.577c2.612 0 4.737-2.125 4.737-4.737v-.25c4.8-1.335 8.204-5.751 8.204-10.8v-8.324c0-1.176-.708-2.186-1.719-2.637l.611-2.017c1.592-5.254 4.572-9.773 8.617-13.071 3.354-2.734 6.148-6.018 8.302-9.757.275-.479.111-1.09-.368-1.365-.478-.276-1.089-.111-1.366.367-2.032 3.527-4.667 6.624-7.833 9.204-4.355 3.551-7.559 8.406-9.267 14.042l-.71 2.344h-21.994l-.587-1.937c-.689-2.275-1.635-4.41-2.772-6.408l.832-.829c.391-.391.391-1.023 0-1.414l-3.254-3.254c.518-.994.95-2.038 1.289-3.119h4.605c.552 0 1-.447 1-1v-9.529c0-.553-.448-1-1-1h-4.605c-.339-1.081-.771-2.125-1.288-3.119l3.253-3.253c.391-.391.391-1.023 0-1.414l-6.738-6.74c-.375-.375-1.039-.375-1.414 0l-3.254 3.254c-.993-.518-2.038-.949-3.119-1.288v-4.605c0-.553-.448-1-1-1h-3.844c1-7.154 4.356-13.804 9.712-19.066 6.46-6.348 14.909-9.792 23.721-9.625 18.02.287 32.68 15.187 32.68 33.215 0 .997-.045 2.004-.133 2.993-.049.55.357 1.036.907 1.085.547.057 1.036-.357 1.085-.907.094-1.048.141-2.114.141-3.171-.001-19.114-15.544-34.911-34.648-35.216zm12.158 88.563c0 .683-.084 1.35-.229 1.996h-25.001c-.144-.646-.229-1.313-.229-1.996v-2.488h25.459zm-7.4 9.03-.804.16v1.859c0 1.51-1.228 2.737-2.737 2.737h-3.577c-1.509 0-2.737-1.228-2.737-2.737v-1.859l-.804-.16c-2.896-.578-5.25-2.501-6.477-5.034h23.614c-1.227 2.533-3.582 4.456-6.478 5.034zm6.41-18.244h.101c.49 0 .889.399.889.89v3.836h-25.459v-3.836c0-.49.399-.89.889-.89h.101zm-41.051-41.338c1.432.389 2.798.953 4.06 1.679.392.224.886.159 1.206-.16l3.077-3.077 5.324 5.325-3.077 3.076c-.32.319-.385.813-.16 1.205.726 1.263 1.29 2.628 1.677 4.06.118.436.514.738.965.738h4.354v7.529h-4.354c-.452 0-.847.303-.965.738-.387 1.432-.952 2.797-1.677 4.06-.226.392-.16.886.16 1.205l3.077 3.077-5.324 5.324-3.077-3.076c-.319-.319-.813-.385-1.205-.16-1.266.727-2.631 1.291-4.06 1.677-.436.118-.739.514-.739.966v4.354h-7.529v-4.354c0-.452-.303-.848-.739-.965-1.428-.387-2.793-.951-4.06-1.678-.392-.227-.886-.159-1.205.16l-3.076 3.076-5.324-5.324 3.076-3.077c.32-.319.385-.813.16-1.205-.727-1.265-1.291-2.63-1.677-4.059-.118-.437-.514-.739-.965-.739h-4.354v-7.529h4.354c.452 0 .848-.303.965-.739.386-1.429.951-2.794 1.677-4.059.225-.392.159-.886-.16-1.205l-3.076-3.076 5.324-5.325 3.076 3.077c.318.318.813.384 1.206.16 1.262-.726 2.628-1.29 4.06-1.679.436-.118.738-.514.738-.965v-4.354h7.529v4.354c-.001.451.302.847.738.965z"/><path d="m106.839 51.748c-.535-.125-1.075.213-1.198.751-.269 1.173-.607 2.344-.996 3.458l-.573 1.521c-.194.518.067 1.094.583 1.288.116.044.235.064.353.064.404 0 .785-.247.936-.647l.581-1.545c.421-1.206.779-2.448 1.064-3.692.124-.538-.212-1.075-.75-1.198z"/><path d="m25.656 64.448c0 7.604 6.187 13.792 13.792 13.792s13.792-6.187 13.792-13.792-6.188-13.792-13.792-13.792-13.792 6.188-13.792 13.792zm25.584 0c0 6.502-5.29 11.792-11.792 11.792s-11.792-5.29-11.792-11.792c0-6.165 4.757-11.231 10.792-11.741v12.605c0 .553.448 1 1 1s1-.447 1-1v-12.605c6.035.511 10.792 5.577 10.792 11.741z"/></g></svg>