<?xml version="1.0" encoding="UTF-8" standalone="no"?>
<svg
   xmlns:dc="http://purl.org/dc/elements/1.1/"
   xmlns:cc="http://creativecommons.org/ns#"
   xmlns:rdf="http://www.w3.org/1999/02/22-rdf-syntax-ns#"
   xmlns:svg="http://www.w3.org/2000/svg"
   xmlns="http://www.w3.org/2000/svg"
   xmlns:sodipodi="http://sodipodi.sourceforge.net/DTD/sodipodi-0.dtd"
   xmlns:inkscape="http://www.inkscape.org/namespaces/inkscape"
   id="Layer_1"
   enable-background="new 0 0 128 128"
   height="512"
   viewBox="0 0 128 128"
   width="512"
   version="1.1"
   sodipodi:docname="eco-friendly.svg"
   inkscape:version="0.92.4 (5da689c313, 2019-01-14)"
   class="icon-poli">
  <metadata
     id="metadata27">
    <rdf:RDF>
      <cc:Work
         rdf:about="">
        <dc:format>image/svg+xml</dc:format>
        <dc:type
           rdf:resource="http://purl.org/dc/dcmitype/StillImage" />
      </cc:Work>
    </rdf:RDF>
  </metadata>
  <defs
     id="defs25" />
  <sodipodi:namedview
     pagecolor="#ffffff"
     bordercolor="#666666"
     borderopacity="1"
     objecttolerance="10"
     gridtolerance="10"
     guidetolerance="10"
     inkscape:pageopacity="0"
     inkscape:pageshadow="2"
     inkscape:window-width="1920"
     inkscape:window-height="1017"
     id="namedview23"
     showgrid="false"
     inkscape:zoom="1.3037281"
     inkscape:cx="304.37732"
     inkscape:cy="295.6904"
     inkscape:window-x="-8"
     inkscape:window-y="-8"
     inkscape:window-maximized="1"
     inkscape:current-layer="Layer_1" />
  <path
     d="m103.149 27.398-2.682-3.688c-.96-1.187-1.994-2.34-3.111-3.462l-3.351-3.044c-7.709-6.322-17.4-9.89-27.287-10.048-.231-.004-.463-.005-.694-.005-24.004 0-44.321 20.268-44.364 44.257-.024 13.301 5.852 25.793 16.122 34.272.427.352 1.056.292 1.408-.134s.292-1.056-.134-1.408c-9.807-8.097-15.418-20.025-15.395-32.726.041-22.907 19.442-42.26 42.364-42.26.219 0 .439.001.66.005 9.438.15 18.69 3.558 26.014 9.562l3.275 2.975c1.032 1.039 2.02 2.141 2.906 3.234l2.622 3.604c4.473 6.867 6.837 14.806 6.837 22.958 0 12.774-5.687 24.736-15.602 32.818-.428.349-.492.979-.143 1.407.197.243.485.368.775.368.222 0 .446-.074.631-.225 10.383-8.463 16.338-20.99 16.338-34.368.001-8.54-2.475-16.856-7.189-24.092z"
     id="path2"
     fill="#e6e7e8" />
  <path
     d="m103.339 51.491c0-20.264-16.479-37.012-36.733-37.334-9.928-.131-19.412 3.682-26.67 10.812-7.253 7.126-11.257 16.521-11.275 26.454-.021 11.2 4.929 21.72 13.578 28.861 4.444 3.669 7.724 8.681 9.485 14.494l.533 1.758c-1.079.457-1.837 1.526-1.837 2.77v8.84c0 5.35 3.618 10.028 8.712 11.422v.313c0 2.74 2.229 4.968 4.968 4.968h3.799c2.74 0 4.968-2.229 4.968-4.968v-.314c5.095-1.394 8.712-6.072 8.712-11.421v-8.84c0-1.243-.759-2.313-1.837-2.77l.664-2.19c1.694-5.592 4.866-10.402 9.171-13.912 8.747-7.129 13.762-17.679 13.762-28.943z"
     id="path4"
     fill="#e6e7e8" />
  <path
     d="m98.339 47.491c0-19.873-15.952-36.02-35.75-36.335-19.986-.318-36.893 16.279-36.929 36.267-.021 11.31 5.129 21.412 13.215 28.089 4.696 3.877 8.04 9.147 9.806 14.975l.852 2.811h24.934l.983-3.244c1.702-5.618 4.946-10.687 9.496-14.397 8.172-6.66 13.393-16.801 13.393-28.166z"
     id="path6"
     fill="#f4c342" />
  <path
     d="m49.426 93.298c-1.108 0-2.006.898-2.006 2.006v8.84c0 5.259 3.745 9.639 8.712 10.631v1.104c0 2.192 1.777 3.968 3.968 3.968h3.8c2.192 0 3.968-1.777 3.968-3.968v-1.104c4.968-.992 8.712-5.372 8.712-10.631v-8.84c0-1.108-.898-2.006-2.006-2.006z"
     fill="#CC0000"
     id="path8" />
  <path
     style="fill:#3a2c60"
     inkscape:connector-curvature="0"
     id="path12"
     d="m 99.178,23.44 c -0.301,-0.462 -0.921,-0.595 -1.384,-0.292 -0.462,0.301 -0.593,0.921 -0.292,1.384 4.473,6.867 6.837,14.806 6.837,22.958 0,12.774 -5.687,24.736 -15.602,32.818 -0.428,0.349 -0.492,0.979 -0.143,1.407 0.197,0.243 0.485,0.368 0.775,0.368 0.222,0 0.446,-0.074 0.631,-0.225 10.383,-8.463 16.338,-20.99 16.338,-34.368 0.001,-8.54 -2.475,-16.856 -7.16,-24.05 z" />
  <path
     style="fill:#3a2c60"
     inkscape:connector-curvature="0"
     id="path14"
     d="m 94.911,20.969 c 0.198,0.244 0.487,0.371 0.778,0.371 0.221,0 0.443,-0.073 0.628,-0.222 0.429,-0.348 0.496,-0.977 0.149,-1.407 -0.96,-1.187 -1.994,-2.34 -3.074,-3.426 -0.39,-0.393 -1.023,-0.395 -1.414,-0.005 -0.392,0.389 -0.394,1.022 -0.005,1.414 1.033,1.038 2.021,2.14 2.938,3.275 z" />
  <path
     style="fill:#3a2c60"
     inkscape:connector-curvature="0"
     id="path16"
     d="M 19.661,47.413 C 19.702,24.505 39.103,5.152 62.025,5.152 c 0.219,0 0.439,10e-4 0.66,0.005 9.438,0.15 18.69,3.558 26.052,9.595 0.428,0.35 1.057,0.288 1.408,-0.139 0.35,-0.427 0.288,-1.057 -0.139,-1.408 C 82.297,6.883 72.606,3.315 62.719,3.157 38.459,2.772 17.705,23.189 17.661,47.409 c -0.024,13.301 5.852,25.793 16.122,34.272 0.187,0.154 0.412,0.229 0.636,0.229 0.288,0 0.574,-0.124 0.771,-0.363 0.352,-0.426 0.292,-1.056 -0.134,-1.408 C 25.249,72.042 19.638,60.114 19.661,47.413 Z" />
  <path
     id="path18"
     transform="scale(0.25)"
     style="fill:#3a2c60;stroke-width:4"
     d="M 246.70312,40.621094 C 208.309,41.028862 171.86889,56.248203 143.74414,83.876953 114.73214,112.38095 98.716531,149.95941 98.644531,189.69141 c -0.084,44.8 19.714549,86.88131 54.310549,115.44531 17.776,14.676 30.8974,34.72261 37.9414,57.97461 l 2.13086,7.0332 c -4.316,1.828 -7.34765,6.10408 -7.34765,11.08008 v 35.35937 c 0,21.4 14.47165,40.1115 34.84765,45.6875 v 1.25196 c 0,10.96 8.91705,19.87304 19.87305,19.87304 h 15.19531 c 10.96,0 19.87305,-8.91704 19.87305,-19.87304 v -1.25586 c 20.38,-5.576 34.84766,-24.2876 34.84766,-45.6836 v -35.35937 c 0,-4.972 -3.03566,-9.25208 -7.34766,-11.08008 l 2.6543,-8.75976 c 6.776,-22.368 19.46554,-41.60844 36.68554,-55.64844 34.988,-28.516 55.04688,-70.71549 55.04688,-115.77149 0,-81.056 -65.91564,-148.047934 -146.93164,-149.335934 -1.24238,-0.01775 -2.48218,-0.02106 -3.72071,-0.0078 z m 0.082,7.992187 c 1.16721,-0.0113 2.33756,-0.0084 3.50781,0.0098 76.68,1.22 139.0625,64.625893 139.0625,141.337893 0,42.648 -18.98761,82.58231 -52.09961,109.57031 -18.46,15.048 -32.04311,35.63339 -39.28711,59.52539 l -3.07227,10.13477 h -41.55859 c -0.30526,0.0698 -0.63174,0.12398 -0.98828,0.15234 -1.60938,0.12803 -3.24845,0.23301 -4.74023,-0.44727 -0.0443,0.003 0.0747,-0.008 -0.66016,0.0527 -0.48791,-0.15974 -1.10273,-0.15693 -1.61524,-0.28516 -0.44524,0.0898 -0.892,0.21201 -1.33398,0.32422 v 0.20313 h -0.83594 c -0.0848,0.0215 -0.1642,0.0392 -0.25,0.0605 -1.26406,0.31508 -2.30447,0.24145 -3.08789,-0.0605 h -38.72656 l -2.54688,-8.4043 c -7.504,-24.764 -21.5079,-46.14227 -40.5039,-61.82227 -32.748,-27.04 -51.4842,-66.86572 -51.40821,-109.26172 0.068,-37.57597 15.23504,-73.13104 42.70704,-100.123042 26.63287,-26.164 61.25386,-40.616416 97.4375,-40.966797 z m -9.11524,74.878909 c -0.0417,0.0915 -0.0812,0.18392 -0.12304,0.27539 -0.26278,0.57438 -0.54087,1.14174 -0.81055,1.71289 0.20315,-0.37123 0.43346,-0.79991 0.64258,-1.1875 0.0916,-0.25307 0.19365,-0.53017 0.29101,-0.80078 z m 32.38867,146.59375 c -0.0459,0.0478 -0.0454,0.0467 -0.0957,0.0996 -0.0328,0.0344 0.14851,-0.076 0.10547,-0.0957 -0.003,-10e-4 -0.007,-0.002 -0.01,-0.004 z m -31.95312,36.04883 c -0.001,0.081 -0.003,0.31134 -0.004,0.40429 0.0296,-0.0169 0.0619,-0.0287 0.0918,-0.0449 -0.0299,-0.12628 -0.0591,-0.23179 -0.0879,-0.35937 z m -0.043,4.5 c -1.5e-4,0.0175 1.5e-4,0.0234 0,0.041 l 0.0117,0.0117 c -0.004,-0.0176 -0.008,-0.0352 -0.0117,-0.0527 z m 10.86133,56.8789 c -0.18815,0.0372 -0.37641,0.0742 -0.56445,0.11133 0.0415,0.0321 0.0701,0.0742 0.11523,0.10352 0.26603,0.17273 0.39597,0.0506 0.44922,-0.21485 z m -0.15039,1.13672 c -0.24131,0.0443 -0.26619,0.0557 -0.39649,0.084 0.0297,0.008 0.0601,0.0282 0.0899,0.0332 0.10856,0.0184 0.41491,-0.13707 0.30664,-0.11719 z m -1.03321,0.23633 c 6.5e-4,8e-5 -0.037,0.002 -0.0371,0.002 0.44284,0.14988 0.42258,0.14641 0.0371,-0.002 z m -50.03711,8.30469 h 0.42969 99.73438 0.42969 c 2.22,0 4.02343,1.80939 4.02343,4.02539 v 16.54297 H 193.67969 V 381.2168 c 0,-2.22 1.80752,-4.02539 4.02343,-4.02539 z m -4.02343,28.57226 h 108.64062 v 10.81641 c 0,2.992 -0.37553,5.90451 -1.01953,8.72851 H 194.69922 c -0.644,-2.824 -1.01953,-5.74051 -1.01953,-8.72851 z m 3.76367,27.54492 h 101.12109 c -5.196,11.008 -15.36095,19.3711 -27.87695,21.8711 l -3.21484,0.64062 v 7.69922 c 0,6.548 -5.32905,11.87305 -11.87305,11.87305 H 240.4043 c -6.548,0 -11.87305,-5.32905 -11.87305,-11.87305 v -7.69531 l -3.21484,-0.64063 c -12.516,-2.5 -22.68105,-10.863 -27.87305,-21.875 z" />
</svg>
