<svg
   xmlns:dc="http://purl.org/dc/elements/1.1/"
   xmlns:cc="http://creativecommons.org/ns#"
   xmlns:rdf="http://www.w3.org/1999/02/22-rdf-syntax-ns#"
   xmlns:svg="http://www.w3.org/2000/svg"
   xmlns="http://www.w3.org/2000/svg"
   xmlns:sodipodi="http://sodipodi.sourceforge.net/DTD/sodipodi-0.dtd"
   xmlns:inkscape="http://www.inkscape.org/namespaces/inkscape"
   version="1.1"
   id="svg2"
   viewBox="0 0 1030 486"
   sodipodi:docname="logo-cosider-1.svg"
   inkscape:version="0.92.4 (5da689c313, 2019-01-14)"
   class="logo-cosider">
  <metadata
     id="metadata8">
    <rdf:RDF>
      <cc:Work
         rdf:about="">
        <dc:format>image/svg+xml</dc:format>
        <dc:type
           rdf:resource="http://purl.org/dc/dcmitype/StillImage" />
        <dc:title></dc:title>
      </cc:Work>
    </rdf:RDF>
  </metadata>
  <defs
     id="defs6" />
  <sodipodi:namedview
     borderopacity="1"
     objecttolerance="10"
     gridtolerance="10"
     guidetolerance="10"
     inkscape:pageopacity="0"
     inkscape:pageshadow="2"
     inkscape:window-width="1920"
     inkscape:window-height="1017"
     id="namedview4"
     showgrid="false"
     inkscape:zoom="1.4142136"
     inkscape:cx="521.35207"
     inkscape:cy="232.81965"
     inkscape:window-x="-8"
     inkscape:window-y="-8"
     inkscape:window-maximized="1"
     inkscape:current-layer="svg2" />
  <g
     id="g333"
     transform="matrix(1.1224715,0,0,1.66458,-65.236295,-175.53379)">
    <g
       id="g302">
      <path
         
         d="m 158.04135,223.62068 -64.699779,0.25573 -27.107415,26.59595 0.25573,50.37888 1.534382,0.25573 1.790113,3.06876 3.580224,4.09169 3.835955,2.81303 4.603146,2.55731 6.137528,1.79011 46.031456,0.25573 1.27866,-27.36315 -38.103824,-0.51146 -2.301573,-2.30157 -0.767191,-1.02292 v -28.89753 l 2.557304,-3.06876 1.278651,-0.25573 31.966293,0.25573 z"
         id="path12"
         inkscape:connector-curvature="0" />
      <path
         
         d="m 170.57213,223.10922 -27.61887,27.8746 0.25573,40.4054 0.76719,3.32449 1.02292,5.37034 3.06876,5.11461 4.34742,4.34741 4.09168,3.3245 4.34742,1.79011 5.62607,1.27865 40.40539,0.76719 27.8746,-28.38607 h -30.68763 -29.15326 l -3.58023,-3.83595 -0.25573,-29.15326 2.81304,-3.32449 h 29.66471 l 0.25573,-28.38607 z"
         id="path14"
         inkscape:connector-curvature="0" />
      <path
         
         d="m 234.50471,223.62068 -35.29078,0.25573 -0.25573,27.61888 4.60314,0.51146 3.83596,2.81303 -0.51146,30.17618 -3.3245,2.81303 -7.16044,1.53438 34.52359,2.30158 3.83595,-3.3245 z"
         id="path18"
         inkscape:connector-curvature="0" />
      <path
         
         d="m 261.86786,223.62068 -27.10742,27.87461 9.46203,9.71775 26.34022,26.34022 -1.27865,0.25573 -1.27865,0.25573 -20.2027,-0.25573 -27.36314,27.36315 61.63101,0.76719 27.61887,-27.61888 -34.77932,-35.54651 0.25573,-1.27865 21.48135,0.51146 27.36314,-27.61888 z"
         id="path20"
         inkscape:connector-curvature="0" />
      <path
         
         d="m 336.79685,223.87641 -27.61888,28.38607 v 62.14247 l 27.87461,-26.85169 0.51146,-59.32943 z"
         id="path22"
         inkscape:connector-curvature="0" />
      <path
         
         d="m 373.11055,223.87641 -27.8746,28.13034 1.02292,44.24134 1.79011,4.85888 3.3245,5.62607 4.34741,4.09168 6.39326,3.83596 5.8818,1.02292 40.91685,0.51146 28.89753,-27.87461 0.25573,-128.12089 h -1.53438 l -27.61888,28.38606 1.02292,95.13169 -3.83595,4.34741 -29.40899,-0.51146 -3.06876,-2.30157 v -30.17618 l 3.32449,-3.32449 5.11461,0.25573 26.85168,-27.10742 v -0.51146 z"
         id="path24"
         inkscape:connector-curvature="0" />
      <path
         
         d="m 473.35684,222.85349 -28.89752,28.38607 0.51146,45.26426 1.53438,4.09169 2.5573,4.34741 2.55731,3.58023 4.09168,3.06876 4.34742,3.06877 3.58022,1.02292 46.03146,0.76719 29.66472,-28.89753 -1.02292,-0.25573 -26.85169,-0.25573 -33.50067,-0.25573 -2.81303,-2.81303 v -28.6418 l 2.81303,-2.81303 27.61888,0.25573 3.06876,2.04584 0.51146,32.98921 3.06877,0.51146 3.06876,-4.60314 13.80944,-13.80944 8.95056,-8.95056 0.51146,-35.54652 -1.53438,-2.5573 z"
         id="path26"
         inkscape:connector-curvature="0" />
      <path
        
         d="m 572.83594,223.87641 -27.36314,27.36315 0.76719,63.16539 -10.74067,10.22921 -0.51147,1.27865 1.53439,1.53438 1.53438,-1.27865 0.76719,-1.53438 110.21977,-110.73123 -0.76719,-1.27866 h -1.53438 l -72.37168,73.39461 -0.25573,-1.02292 0.51146,-29.92045 2.04584,-2.81303 10.9964,-0.25573 27.10742,-27.61888 z"
         id="path28"
         inkscape:connector-curvature="0" />
      <path
         
         d="m 651.85662,249.70517 -7.67191,17.13394 4.34741,3.58022 4.34742,4.60315 3.58022,4.09168 1.53438,2.04584 v 2.81304 l -0.51146,2.04584 -1.27865,1.79011 -3.32449,3.3245 -3.58023,3.06876 -4.60314,1.79011 -4.85888,2.81304 -4.85888,2.5573 -4.34741,0.76719 -3.3245,0.25573 -2.04584,-0.25573 -3.58022,-0.51146 h -3.06877 l -3.58022,-1.02292 -1.27865,-0.51146 h -1.27865 l -2.04585,0.25573 0.51146,2.04584 3.83596,3.3245 6.13753,2.81303 5.62606,3.32449 5.37034,1.79012 5.11461,1.53438 3.83595,1.79011 4.09169,-0.51146 5.62606,-2.04584 4.09169,-2.81304 4.09169,-4.60314 2.30157,-3.83596 3.06876,-5.37033 2.30158,-3.83596 1.53438,-4.85888 1.27865,-4.09168 0.51146,-3.3245 0.25573,-4.60314 -0.76719,-4.09169 -2.04584,-5.62606 -2.55731,-4.34742 -4.09168,-5.62607 -3.58023,-3.32449 z"
         id="path30"
         inkscape:connector-curvature="0" />
      <path
         
         d="m 683.31145,223.10922 -10.48495,20.45843 4.09169,25.57303 0.51146,7.92764 0.51146,5.11461 1.27865,12.78651 1.79011,0.25573 3.06877,-4.60314 2.30157,-4.85888 1.79011,-3.83596 v -3.32449 l 0.76719,-4.34742 -0.25573,-7.92764 -0.51146,-7.92764 -0.25573,-8.4391 -0.51146,-8.95056 -1.53438,-10.9964 v -3.58023 z"
         id="path32"
         inkscape:connector-curvature="0" />
      <path
         
         d="m 698.911,256.86562 -3.58023,6.64899 -2.30157,7.92764 v 7.67191 12.01933 l 2.04584,2.81303 8.18337,0.76719 25.57304,-0.51146 2.04584,-1.79011 4.09168,-6.90472 1.79012,6.13753 2.81303,2.5573 h 13.80944 l 14.57663,-0.25573 4.60314,0.25573 1.79012,-2.5573 0.76719,-4.34742 0.25573,-1.27865 4.09168,6.13753 3.06877,2.30157 h 3.83595 l 11.50787,-0.25573 h 2.81303 l 2.81303,-3.58022 1.02292,3.06876 3.06877,1.53438 16.8782,-0.25573 2.04584,-2.81303 1.27866,2.5573 11.50786,-0.25573 10.22921,-0.25573 1.02292,-0.25573 4.85888,-17.13393 0.25573,-5.11461 0.51146,-21.22562 -1.79011,-0.25573 -10.9964,13.55371 0.76719,4.85888 v 1.79011 l -0.76719,1.79011 -9.2063,-0.25573 -0.25573,-2.5573 1.02292,-4.85888 0.51147,-3.06876 2.04584,-4.09169 1.27865,-3.32449 -0.51146,-2.30157 -3.3245,1.53438 -7.67191,8.18337 -1.27865,2.5573 -0.76719,6.90472 -0.76719,0.76719 -12.27506,-0.51146 -0.76719,-1.27865 1.53439,-3.32449 1.79011,-4.34742 1.79011,-5.11461 0.76719,-5.62606 -1.02292,-1.79012 -6.39326,5.11461 -6.90472,7.92764 -0.76719,2.04584 0.51146,1.79012 -1.27865,4.34741 -1.53438,1.02292 h -18.15685 l -2.30158,-12.27505 -0.51146,-7.41618 -2.5573,-5.8818 -3.06877,-4.34742 -3.06876,4.60315 -4.85888,8.69483 -2.04584,2.81303 3.3245,3.3245 2.5573,4.34741 v 2.55731 l 0.25573,3.06876 -18.92405,0.25573 -2.5573,-1.02292 -1.53438,-1.27865 -1.53438,-4.09169 -8.69483,-36.05797 -0.76719,-3.58023 -1.02293,0.25573 -2.81303,5.62607 -5.37034,10.22921 -0.51146,0.76719 5.37034,21.73708 1.27865,5.11461 -0.25573,1.79011 -1.79011,0.76719 -26.34023,-0.51146 -2.81303,-2.04584 -0.76719,-4.60315 -0.25573,-4.09168 1.27865,-2.30158 0.25573,-1.79011 z"
         id="path34"
         inkscape:connector-curvature="0" />
      <path
         
         d="m 775.88583,300.08405 -4.09169,6.64899 -1.27865,4.60314 12.27506,7.67191 6.13752,-11.25213 z"
         id="path36"
         inkscape:connector-curvature="0" />
      <path
         
         d="m 758.49617,300.33978 14.83235,9.97348 -2.81303,1.02292 -5.62607,7.16045 -13.80943,-6.90472 z"
         id="path38"
         inkscape:connector-curvature="0" />
      <path
         
         d="m 948.5038,214.15866 -43.72988,11.50786 -6.39326,21.73708 13.04224,13.04225 2.55731,-2.30158 17.13393,12.78652 -1.02292,1.02292 -28.6418,-0.51146 -1.02292,-0.51146 -0.76719,-5.8818 -2.30157,-8.95056 -2.81304,-5.8818 -2.81303,-4.09168 -1.79011,-1.53438 -3.06877,-0.76719 -4.09168,0.51146 -4.60315,2.5573 -2.5573,2.81303 -2.81304,3.83596 -2.81303,5.62607 -2.5573,5.37033 -1.53439,4.60315 -1.02292,4.60314 -0.25573,3.58023 -0.51146,7.16045 0.51146,2.04584 2.04585,2.30157 3.06876,1.53439 3.58022,1.27865 4.34742,1.02292 h 4.85888 l 2.30157,0.25573 1.02292,1.02292 0.25573,1.27865 -3.06876,2.55731 -3.83596,3.06876 -4.60314,2.81303 -3.83596,2.30158 -4.60315,1.53438 -5.1146,1.02292 -6.64899,1.02292 h -2.81303 l -5.62607,0.76719 -1.27865,0.51146 0.51146,2.30158 4.34741,1.02292 8.69483,1.79011 6.64899,1.02292 5.62607,0.76719 5.11461,-0.25573 h 3.58022 l 3.83596,-1.53438 3.83595,-2.04584 3.83596,-5.11461 2.5573,-3.83596 1.79011,-3.83595 1.79011,-4.34742 0.51147,-2.30157 1.27865,-0.25573 6.64899,0.51146 11.76359,-0.25573 h 13.29798 l 9.46202,-0.51146 3.32449,-0.76719 4.85888,-23.27146 -4.09168,-5.8818 -7.92764,-7.67191 -6.90472,-5.62607 -7.16045,-5.88179 -4.09169,-3.58023 -2.04584,-1.02292 0.51146,-1.02292 2.5573,-1.27865 8.95057,-2.04584 10.74067,-3.3245 6.13753,-1.79011 1.27865,-0.51146 3.83595,-15.85528 -0.51146,-0.76719 z"
         id="path40"
         inkscape:connector-curvature="0" />
      <g
         id="g8"
         transform="matrix(0.43314991,0,0,0.39383108,951.67015,276.56506)">
        <g
           id="g6">
          <g
             id="g4">
            <path
               inkscape:connector-curvature="0"
               d="M 22.002,0 C 9.851,0 0,9.851 0,22 0,34.149 9.851,44 22.002,44 34.152,44 44,34.149 44,22 44,9.851 34.152,0 22.002,0 Z m 0,41.998 C 10.954,41.998 1.997,33.047 1.997,22 c 0,-11.047 8.957,-19.998 20.005,-19.998 11.043,0 20,8.951 20,19.998 0,11.047 -8.957,19.998 -20,19.998 z m 8.472,-11.152 v -2.409 c 0,-1.546 -0.35,-2.832 -1.046,-3.856 -0.7,-1.025 -1.839,-1.737 -3.422,-2.137 1.432,-0.492 2.539,-1.273 3.324,-2.348 0.785,-1.07 1.176,-2.286 1.176,-3.646 0,-2.307 -0.733,-4.065 -2.197,-5.265 -1.465,-1.2 -3.568,-1.803 -6.312,-1.803 h -8.663 v 25.576 h 2.092 V 23.392 h 7.17 c 1.818,0 3.235,0.456 4.248,1.363 1.014,0.911 1.517,2.148 1.517,3.719 v 2.34 c 0,0.817 0.09,1.61 0.265,2.372 0.175,0.761 0.48,1.351 0.916,1.773 h 2.145 v -0.423 c -0.436,-0.398 -0.745,-0.911 -0.933,-1.546 -0.187,-0.631 -0.28,-1.346 -0.28,-2.144 z M 21.737,21.602 H 15.425 V 11.177 h 6.571 c 2.149,0 3.748,0.456 4.811,1.363 1.061,0.907 1.591,2.205 1.591,3.894 0,1.583 -0.533,2.836 -1.6,3.768 -1.065,0.932 -2.754,1.4 -5.061,1.4 z"
               id="path2" />
          </g>
        </g>
      </g>
    </g>
    <g
       transform="matrix(0.53533938,0,0,0.63828933,632.10668,164.85968)"
       id="g282">
      <path
         
         d="m 247.09944,49.276524 4.92281,-2.621236 -0.12787,11.955393 -0.51146,-0.575393 -0.89506,-0.639326 -1.21472,-0.895056 -1.79011,-1.150787 -1.66224,-0.895056 -2.30158,-1.150786 -1.66224,-0.639326 -1.40652,-0.511461 -1.59832,-0.447528 -1.21472,-0.319663 -1.34258,-0.25573 -1.15079,-0.127865 -1.02292,-0.127865 -1.15078,-0.06393 h -1.53439 -1.02292 l -0.76719,0.06393 h -1.08685 l -1.21472,0.191797 -1.21472,0.447528 -1.08685,0.383596 -0.5754,0.383595 -0.76719,0.511461 -0.57539,0.511461 -0.70326,0.703258 -0.51146,0.703259 -0.44753,0.895056 -0.38359,0.575393 -0.3836,1.022921 -0.1918,0.639326 -0.0639,0.703259 -0.12787,0.767191 -0.0639,1.214719 0.0639,0.895056 0.1918,1.214719 0.0639,0.831123 0.1918,0.831124 0.3836,0.831124 0.44753,0.703258 0.44752,0.639326 0.7672,0.831123 0.63932,0.383596 0.83112,0.575393 0.70326,0.447528 1.02292,0.319663 0.7672,0.319663 1.02292,0.191798 1.27865,0.127865 0.76719,0.06393 0.83112,0.06393 1.02292,-0.06393 1.08686,-0.127866 h 1.02292 l 1.02292,-0.191797 0.95899,-0.191798 0.95899,-0.25573 0.83112,-0.255731 1.02292,-0.447528 0.89506,-0.511461 0.0639,-1.534382 -10.8046,-6.265393 17.19786,-0.127865 h 16.36674 l -9.90955,6.393258 0.0639,8.503034 -6.07359,-2.876966 -0.63933,0.191798 -1.08685,0.447528 -1.08686,0.383595 -1.40651,0.319663 -1.08686,0.25573 -1.27865,0.255731 -1.15078,0.25573 -1.79012,0.191798 -0.63932,0.127865 -1.15079,0.127865 -0.89505,0.06393 -1.27866,0.06393 h -0.83112 l -1.21472,0.06393 h -0.89506 l -1.47044,0.06393 h -1.02293 l -0.95898,-0.127865 h -1.34259 l -1.27865,-0.191797 -1.66225,-0.191798 -1.47045,-0.127865 -1.59831,-0.383596 -1.79011,-0.511461 -1.59832,-0.447528 -1.66225,-0.575393 -1.15078,-0.639326 -1.47045,-0.703258 -0.76719,-0.511461 -1.27865,-0.767191 -0.95899,-0.767191 -0.95899,-0.767191 -1.02292,-1.150786 -0.76719,-0.958989 -0.63933,-1.150787 -0.51146,-1.406516 -0.25573,-1.086854 -0.0639,-1.342584 0.12786,-1.47045 0.31966,-1.470449 0.5754,-1.278652 0.89505,-1.470449 0.95899,-1.150787 1.27865,-1.086854 1.08686,-0.831123 1.53438,-1.150787 1.47045,-0.895056 1.21472,-0.639326 1.40652,-0.639326 1.40651,-0.575393 1.40652,-0.447528 1.72618,-0.511461 1.66225,-0.383595 1.34258,-0.319663 1.21472,-0.25573 1.47045,-0.127866 1.91798,-0.191797 1.21472,-0.06393 2.1737,-0.06393 2.23764,0.06393 2.23764,0.127865 2.04585,0.127865 1.98191,0.447528 1.40651,0.319663 1.47045,0.447528 1.47045,0.383596 1.34259,0.511461 1.08685,0.51146 z"
         id="path62"
         inkscape:connector-curvature="0" />
      <path
         
         d="m 260.9728,54.710794 18.15686,-0.319663 -0.0639,5.753933 0.38359,-0.767191 0.57539,-0.831124 0.89506,-1.086854 1.08685,-0.895056 1.08686,-0.895056 1.47045,-0.767191 1.59831,-0.383595 1.27865,-0.191798 1.91798,-0.06393 1.72618,0.191798 2.04584,0.511461 1.08686,0.447528 1.15078,0.639326 1.15079,1.022921 0.57539,1.022921 0.3836,1.150787 0.0639,0.958989 -0.12786,0.831123 -0.31967,0.831124 -0.70325,0.895056 -0.83113,0.639326 -0.83112,0.383595 -0.70326,0.255731 -1.08685,0.127865 -1.47045,0.127865 -1.34259,-0.06393 -1.79011,-0.191797 -1.53438,-0.319663 0.63932,-0.831124 0.44753,-0.895056 0.0639,-0.958989 -0.12786,-0.767191 -0.12787,-0.383595 -0.25573,-0.383596 -0.51146,-0.447528 -0.95899,-0.319663 -0.83112,-0.127865 -1.27865,0.127865 -0.89506,0.383596 -0.76719,0.447528 -0.89505,0.767191 -0.83113,1.022921 -0.57539,1.086854 -0.31966,1.086854 -0.1918,1.150786 v 3.96382 l 8.82269,4.794944 h -27.55494 l 7.79978,-4.986741 -0.1918,-8.886629 z"
         id="path66"
         inkscape:connector-curvature="0" />
      <path
         
         d="m 315.3155,53.62394 -2.10978,0.255731 -4.09168,0.831123 -1.66225,0.447528 -1.85404,0.703259 -2.68517,1.406517 -2.30157,1.726179 -1.47045,1.790113 -0.70326,1.598314 -0.12787,0.958989 v 1.342584 l 0.31967,1.662247 12.14719,0.639326 -0.25573,-1.406517 -0.12787,-1.854044 0.1918,-1.598315 0.44753,-1.278652 0.57539,-1.150786 0.95899,-0.958989 1.15079,-0.575393 0.89505,-0.383596 0.76719,-0.127865 1.47045,-0.127865 1.85405,0.25573 1.53438,0.511461 1.15079,0.831124 0.83112,1.022921 0.63932,1.278652 0.31967,1.342584 0.0639,1.534382 -0.12786,1.470449 -0.31967,1.342584 -0.51146,1.150787 -0.83112,0.831124 -0.89506,0.703258 -1.47045,0.575393 -0.95899,0.191798 -1.27865,-0.06393 -1.66225,-0.191797 -1.08685,-0.255731 -0.70326,-0.191797 -0.89505,-0.575394 -0.63933,-0.575393 -0.31966,5.242472 0.38359,0.06393 1.59832,0.319663 h 1.02292 l 1.59831,0.191798 2.04585,-0.06393 1.72618,-0.127866 1.59831,-0.25573 2.42944,-0.319663 1.66225,-0.383595 1.98191,-0.703259 1.53438,-0.767191 1.98191,-0.895056 1.59831,-1.278652 1.40652,-1.342584 0.76719,-1.278652 0.3836,-1.150786 0.12786,-1.534382 -0.0639,-1.150786 -0.3836,-1.342585 -0.76719,-1.214719 -0.76719,-1.086854 -1.02292,-0.958988 -0.89506,-0.767191 -1.02292,-0.639326 -1.02292,-0.575394 -1.08685,-0.51146 -1.21472,-0.575393 -1.15079,-0.511461 -1.27865,-0.383596 -1.59831,-0.447528 -1.66225,-0.319663 -2.04584,-0.25573 h -2.10978 z"
         id="path68"
         inkscape:connector-curvature="0" />
      <path
         
         d="m 298.6291,66.346524 1.08685,1.917978 1.91798,1.790112 1.79011,1.150787 1.85404,1.022921 2.10978,0.831124 2.04584,0.639326 1.34259,0.25573 0.76716,3e-6 0.95902,-2.621239 -1.27866,-3.388427 -0.44752,-0.958989 -7.09652,-0.958988 z"
         id="path70"
         inkscape:connector-curvature="0" />
      <path
         
         d="m 342.10325,59.697536 -7.54404,-4.922809 18.60438,-0.447528 0.25573,0.127865 -0.1918,2.429438 0.0639,8.119438 v 1.214719 l 0.3836,1.342585 0.51146,0.703258 0.51146,0.511461 0.83112,0.383595 0.95899,0.191798 h 1.66225 l 0.89506,-0.127865 1.21472,-0.255731 1.21471,-0.767191 0.70326,-0.639325 0.63933,-0.767191 0.38359,-0.703259 0.3836,-1.086854 0.0639,-5.306404 -9.07842,-4.986742 20.33056,-0.383595 -0.0639,14.129101 7.54405,4.986741 h -18.86011 l 0.0639,-3.70809 -0.3836,0.191798 -1.40651,1.406517 -1.02292,0.831124 -0.83113,0.575393 -0.83112,0.383595 -1.40652,0.447528 -1.34258,0.383596 -1.15079,0.25573 -1.15078,0.127865 h -1.53439 l -1.59831,-0.127865 -1.72618,-0.319663 -1.34259,-0.383595 -1.40651,-0.319663 -1.47045,-0.703259 -1.08686,-0.831123 -0.95898,-1.022921 -0.5754,-0.895057 -0.25573,-1.086854 z"
         id="path72"
         inkscape:connector-curvature="0" />
      <path
         
         d="m 397.40494,54.263266 -18.92405,0.511461 7.79978,4.858876 v 17.32573 l -7.48012,4.858877 h 27.55495 l -9.0145,-4.731012 0.12787,-7.224381 0.57539,0.958988 1.02292,1.150787 1.72618,1.022921 1.59832,-3.132696 -0.83113,-0.255731 -0.95898,-0.447528 -0.70326,-0.511461 -0.44753,-0.51146 -0.51146,-0.639326 -0.31966,-0.958989 -0.3836,-1.278651 -0.0639,-1.598315 0.1918,-1.406517 0.25573,-1.342584 0.76719,-1.150787 0.83112,-0.958988 0.12787,-3.516292 -0.89506,0.639325 -0.89506,0.767191 -1.02292,0.958989 -0.12786,0.191798 z"
         id="path74"
         inkscape:connector-curvature="0" />
      <path
         
         d="m 406.14115,53.864728 -1.98911,0.226036 -1.49184,0.31645 -0.99456,0.406865 -0.81373,0.361657 -0.50604,0.110452 -0.3981,1.697835 0.27023,1.818457 0.72433,-0.281414 0.6329,-0.180829 0.72331,-0.180828 0.90415,-0.09041 0.99455,0.04521 0.67811,0.09041 0.94935,0.271243 0.67811,0.361657 0.6329,0.587693 0.54249,0.813729 0.31645,0.587693 0.22603,0.452072 0.18083,1.039765 0.0452,0.6329 0.0904,1.039765 -0.13562,1.130179 -0.13562,1.311008 -0.36166,0.858936 -0.36165,0.768521 -0.49728,0.678108 -0.67811,0.452072 -0.76852,0.452071 -0.76852,0.226036 -0.94936,0.09041 -0.76852,-0.04521 -0.72059,-0.05045 -0.90686,0.683354 -1.17539,1.175387 0.85894,1.537043 0.58769,0.271243 0.81373,0.271243 0.94935,0.226036 0.6329,0.135621 1.03976,0.135622 h 0.90415 l 0.94935,0.04521 1.13018,-0.09041 1.311,-0.135622 1.44663,-0.271243 1.49184,-0.361657 1.35621,-0.587693 1.03977,-0.542486 0.94935,-0.497279 0.76852,-0.542486 0.81373,-0.6329 0.72331,-0.6329 0.54249,-0.632901 0.58769,-0.813729 0.5877,-1.084971 0.36165,-0.904144 0.18083,-0.94935 0.0904,-0.904143 -0.0452,-0.858937 -0.0904,-0.94935 -0.31646,-1.084972 -0.45207,-1.039765 -0.49728,-0.904143 -0.72331,-0.94935 -0.49728,-0.542486 -0.54248,-0.452072 -0.76853,-0.678107 -0.85893,-0.678108 -0.99456,-0.723314 -0.90414,-0.497279 -1.53705,-0.6329 -1.85349,-0.542486 -0.99456,-0.180829 -0.99456,-0.135622 -1.03976,-0.135621 h -0.85894 z"
         id="path78"
         inkscape:connector-curvature="0" />
      <path
         
         d="m 434.6137,65.163771 21.19365,-0.03197 -0.17565,-0.846826 -0.39557,-1.356215 -0.6555,-1.627458 -0.74592,-1.277102 -0.70071,-0.983256 -6.9393,2.735033 -3.49225,0.0113 h -7.94516 l -10.34114,-0.0113 -1.29971,-0.0226 -0.13562,0.474675 -0.14692,0.621598 -0.13562,0.813729 -0.0226,0.576392 0.0226,0.678107 0.11301,0.836333 0.16953,0.666805 0.32775,0.858936 0.40687,0.75722 0.54248,0.791126 0.66681,0.734616 0.42947,0.395563 0.35035,0.31645 0.40687,0.293847 0.37296,0.293846 0.38426,0.237338 0.28254,0.180828 0.29385,0.203433 0.46337,0.237337 0.35036,0.180829 0.24864,0.135621 0.35035,0.146924 0.33906,0.180828 0.28254,0.09042 0.38426,0.169527 0.27125,0.113017 0.42946,0.158225 0.51989,0.169527 0.45207,0.158225 0.57639,0.158225 0.45207,0.12432 0.6329,0.135622 0.77982,0.158225 0.70072,0.135621 0.56508,0.101716 0.64421,0.101716 0.57639,0.07911 0.70071,0.05651 0.6216,0.07911 0.59899,0.03391 0.56509,0.0226 0.70071,0.04521 0.57639,0.0226 h 0.66681 l 0.84763,-0.0113 0.64421,0.0113 1.00586,-0.04521 1.08497,-0.07911 1.09627,-0.07911 0.89284,-0.113018 1.48054,-0.214734 1.07367,-0.237338 0.85893,-0.203432 0.72332,-0.226036 0.76852,-0.271243 0.89284,-0.361657 0.75722,-0.372959 0.70071,-0.418166 0.72332,-0.531184 0.56509,-0.553788 0.31645,-0.418166 0.29384,-0.497279 0.20344,-0.463374 0.13562,-0.666805 0.0226,-0.632901 -0.0678,-0.418166 -0.19213,-0.553788 -0.0904,-0.226035 -0.29385,0.372959 -0.50858,0.44077 -0.47468,0.372959 -0.55378,0.339053 -0.6216,0.327752 -0.64421,0.271243 -0.73461,0.259941 -0.65551,0.203433 -0.59899,0.158225 -0.56509,0.135621 -0.75722,0.12432 -0.50858,0.06781 -0.85894,0.113018 -0.68941,0.06781 -0.72331,0.05651 -0.75722,0.04521 -0.72332,0.0113 -0.82503,0.0113 h -0.76852 l -0.96065,-0.04521 -0.6103,-0.03391 -0.61029,-0.05651 -1.08498,-0.146924 -0.89284,-0.158225 -0.75722,-0.214734 -0.59899,-0.214734 -0.53119,-0.226036 -0.55378,-0.31645 -0.45208,-0.293846 -0.42946,-0.361658 -0.24864,-0.282544 -0.31645,-0.406865 -0.24864,-0.384261 -0.19213,-0.463373 -0.14693,-0.576392 -0.0791,-0.531184 -0.0113,-0.226036 z"
         id="path269"
         inkscape:connector-curvature="0" />
      <path
         
         d="m 446.62417,62.250657 6.28379,-3.367934 -0.20343,-0.339054 -0.50138,-0.484406 -0.6633,-0.623343 -0.51945,-0.423553 -0.42355,-0.30368 -0.47478,-0.32366 -0.40121,-0.265592 -0.38991,-0.226036 -0.3108,-0.175178 -0.55944,-0.288195 -0.60465,-0.276894 -0.55944,-0.226036 -0.64985,-0.237338 -0.89849,-0.271243 -0.87589,-0.214734 -1.05107,-0.214734 -0.87588,-0.135621 -0.98891,-0.09042 -1.16409,-0.07346 -1.11887,-0.01695 -1.04542,0.02825 -0.91544,0.05086 -1.2545,0.107367 -1.11323,0.146923 -1.49749,0.293847 -0.93804,0.220384 -1.07933,0.327752 -1.0002,0.356007 -0.79113,0.322101 -0.955,0.446421 -0.97196,0.531184 -1.15843,0.740267 -0.76852,0.548137 -0.3334,0.288196 -0.42382,0.367308 -0.2995,0.288195 -0.53118,0.570741 -0.40687,0.50858 -0.3447,0.497279 -0.42382,0.762871 -0.22603,0.452072 -0.54249,0.768522 5.85433,1.07367 5.0858,-0.339054 1.19799,-1.717872 -0.006,-0.02825 0.0396,-0.242988 0.0961,-0.395563 0.15823,-0.418166 0.16953,-0.327752 0.22038,-0.333403 0.20343,-0.259941 0.20909,-0.226036 0.28254,-0.25429 0.22039,-0.18648 0.23733,-0.175178 0.3221,-0.203432 0.25429,-0.135621 0.25429,-0.129971 0.24299,-0.113018 0.28255,-0.101716 0.22603,-0.07911 0.30515,-0.09607 0.35036,-0.08476 0.33905,-0.06781 0.38426,-0.05086 0.29385,-0.0226 0.37861,-0.0226 h 0.30515 l 0.45207,0.0057 0.33905,0.0113 0.3221,0.0226 0.28255,0.03391 0.28819,0.03956 0.40122,0.06216 0.33905,0.07911 0.2995,0.09042 0.36166,0.118668 0.23733,0.09607 0.32776,0.158225 0.23168,0.141272 0.21474,0.146923 0.22038,0.169527 0.25429,0.231687 0.19213,0.214734 0.15823,0.214734 0.22603,0.361657 0.0848,0.175178 0.11301,0.259941 0.0848,0.259941 0.0678,0.242989 0.0622,0.259941 0.0339,0.276894 0.0226,0.220385 -0.17518,0.242988 z"
         id="path271"
         inkscape:connector-curvature="0" />
    </g>
  </g>
</svg>
