

<svg
   xmlns:dc="http://purl.org/dc/elements/1.1/"
   xmlns:cc="http://creativecommons.org/ns#"
   xmlns:rdf="http://www.w3.org/1999/02/22-rdf-syntax-ns#"
   xmlns:svg="http://www.w3.org/2000/svg"
   xmlns="http://www.w3.org/2000/svg"
   xmlns:sodipodi="http://sodipodi.sourceforge.net/DTD/sodipodi-0.dtd"
   xmlns:inkscape="http://www.inkscape.org/namespaces/inkscape"
   version="1.1"
   id="Layer_1"
   x="0px"
   y="0px"
   viewBox="0 0 309.267 309.267"
   style="enable-background:new 0 0 309.267 309.267;"
   xml:space="preserve"
   class="icon-pdf-mini"
   sodipodi:docname="pdf3.svg"
   inkscape:version="0.92.4 (5da689c313, 2019-01-14)"><metadata
   id="metadata43"><rdf:RDF><cc:Work
       rdf:about=""><dc:format>image/svg+xml</dc:format><dc:type
         rdf:resource="http://purl.org/dc/dcmitype/StillImage" /></cc:Work></rdf:RDF></metadata><defs
   id="defs41" /><sodipodi:namedview
   pagecolor="#ffffff"
   bordercolor="#666666"
   borderopacity="1"
   objecttolerance="10"
   gridtolerance="10"
   guidetolerance="10"
   inkscape:pageopacity="0"
   inkscape:pageshadow="2"
   inkscape:window-width="1920"
   inkscape:window-height="1017"
   id="namedview39"
   showgrid="false"
   inkscape:zoom="1.0791788"
   inkscape:cx="137.74529"
   inkscape:cy="190.71285"
   inkscape:window-x="-8"
   inkscape:window-y="-8"
   inkscape:window-maximized="1"
   inkscape:current-layer="Layer_1" />

<g
   id="g8">
</g>
<g
   id="g10">
</g>
<g
   id="g12">
</g>
<g
   id="g14">
</g>
<g
   id="g16">
</g>
<g
   id="g18">
</g>
<g
   id="g20">
</g>
<g
   id="g22">
</g>
<g
   id="g24">
</g>
<g
   id="g26">
</g>
<g
   id="g28">
</g>
<g
   id="g30">
</g>
<g
   id="g32">
</g>
<g
   id="g34">
</g>
<g
   id="g36">
</g>
<g
   id="g6">
	<path
   inkscape:connector-curvature="0"
   style="fill:#e2574c"
   d="m 38.658,0 h 164.23 l 87.049,86.711 v 203.227 c 0,10.679 -8.659,19.329 -19.329,19.329 H 38.658 c -10.67,0 -19.329,-8.65 -19.329,-19.329 V 19.329 C 19.329,8.65 27.989,0 38.658,0 Z"
   id="path2" />
	<path
   inkscape:connector-curvature="0"
   style="fill:#b53629"
   d="m 289.658,86.981 h -67.372 c -10.67,0 -19.329,-8.659 -19.329,-19.329 V 0.193 Z"
   id="path4" />
</g><g
   transform="matrix(0.51414781,0,0,0.53808361,73.167073,75.353803)"
   id="XMLID_238_"><path
     inkscape:connector-curvature="0"
     id="XMLID_239_"
     d="m 253.319,178.119 c -19.338,0 -43.539,3.373 -51.456,4.56 -32.769,-34.22 -42.092,-53.671 -44.189,-58.857 2.842,-7.302 12.73,-35.041 14.135,-70.667 C 172.502,35.318 168.734,21.99 160.607,13.541 152.494,5.106 142.674,4.45 139.858,4.45 c -9.874,0 -26.438,4.993 -26.438,38.429 0,29.011 13.526,59.795 17.265,67.749 C 110.986,167.986 89.837,207.251 85.346,215.326 6.19,245.129 0,273.945 0,282.112 c 0,14.676 10.452,23.438 27.959,23.438 42.535,0 81.351,-71.412 87.769,-83.812 30.21,-12.037 70.644,-19.493 80.923,-21.272 29.484,28.086 63.583,35.58 77.743,35.58 10.654,0 35.605,0 35.605,-25.653 10e-4,-23.822 -30.532,-32.274 -56.68,-32.274 z m -2.05,16.841 c 22.975,0 29.047,7.598 29.047,11.615 0,2.521 -0.957,10.746 -13.272,10.746 -11.043,0 -30.109,-6.382 -48.868,-20.23 7.823,-1.028 19.399,-2.131 33.093,-2.131 z M 138.652,20.774 c 2.095,0 3.474,0.673 4.611,2.25 6.608,9.169 1.28,39.129 -5.205,62.574 -6.26,-20.103 -10.958,-50.949 -4.348,-61.801 1.292,-2.118 2.769,-3.023 4.942,-3.023 z m -11.158,179.453 c 8.318,-16.804 17.641,-41.294 22.719,-55.145 10.162,17.009 23.83,32.801 31.735,41.363 -24.613,5.189 -43.235,10.373 -54.454,13.782 z M 16.523,284.354 c -0.548,-0.65 -0.629,-2.02 -0.216,-3.665 0.866,-3.447 7.484,-20.534 55.351,-41.946 -6.854,10.796 -17.569,26.222 -29.34,37.746 -8.286,7.756 -14.738,11.689 -19.177,11.689 -1.588,0 -3.776,-0.433 -6.618,-3.824 z"
     style="fill:#ffffff" /></g></svg>