<?xml version="1.0" encoding="UTF-8" standalone="no"?>
<svg
   xmlns:dc="http://purl.org/dc/elements/1.1/"
   xmlns:cc="http://creativecommons.org/ns#"
   xmlns:rdf="http://www.w3.org/1999/02/22-rdf-syntax-ns#"
   xmlns:svg="http://www.w3.org/2000/svg"
   xmlns="http://www.w3.org/2000/svg"
   xmlns:xlink="http://www.w3.org/1999/xlink"
   xmlns:sodipodi="http://sodipodi.sourceforge.net/DTD/sodipodi-0.dtd"
   xmlns:inkscape="http://www.inkscape.org/namespaces/inkscape"
   id="circle-nav-services"
   width="100%"
   height="100%"
   viewBox="0 0 650 650"
   version="1.1"
   sodipodi:docname="round-menu.svg"
   inkscape:version="0.92.4 (5da689c313, 2019-01-14)">
  <metadata
     id="metadata535">
    <rdf:RDF>
      <cc:Work
         rdf:about="">
        <dc:format>image/svg+xml</dc:format>
        <dc:type
           rdf:resource="http://purl.org/dc/dcmitype/StillImage" />
      </cc:Work>
    </rdf:RDF>
  </metadata>
  <sodipodi:namedview
     pagecolor="#ffffff"
     bordercolor="#666666"
     borderopacity="1"
     objecttolerance="10"
     gridtolerance="10"
     guidetolerance="10"
     inkscape:pageopacity="0"
     inkscape:pageshadow="2"
     inkscape:window-width="1920"
     inkscape:window-height="1017"
     id="namedview533"
     showgrid="false"
     inkscape:zoom="0.72615385"
     inkscape:cx="107.06093"
     inkscape:cy="241.40705"
     inkscape:window-x="-8"
     inkscape:window-y="-8"
     inkscape:window-maximized="1"
     inkscape:current-layer="circle-nav-services" />
  <defs
     id="defs462">
    <filter
       id="service-shadow"
       height="2"
       width="2"
       y="-.5"
       x="-.5">
      <feOffset
         result="offOut"
         in="SourceGraphic"
         dx="0"
         dy="5"
         id="feOffset455" />
      <feGaussianBlur
         result="blurOut"
         in="offOut"
         stdDeviation="12"
         id="feGaussianBlur457" />
      <feBlend
         in="SourceGraphic"
         in2="blurOut"
         mode="normal"
         id="feBlend459" />
    </filter>
  </defs>
  <symbol
     id="industries"
     viewBox="0 0 512 512">
    <path
       d="M17.528 189.7l29.46 5.893c1.875 5.74 4.193 11.33 6.924 16.708l-16.667 25.002c-5.745 8.618-4.6 20.188 2.725 27.51l13.196 13.197c7.32 7.322 18.892 8.47 27.51 2.724l25.002-16.666c5.378 2.732 10.97 5.05 16.708 6.922l5.893 29.46c2.03 10.157 11.022 17.53 21.378 17.53h18.663c10.357 0 19.35-7.373 21.38-17.528l5.893-29.462c5.74-1.874 11.33-4.19 16.708-6.922l25.003 16.666c8.617 5.745 20.188 4.602 27.51-2.724l13.197-13.197c7.323-7.323 8.47-18.893 2.724-27.51L264.067 212.3c2.73-5.377 5.05-10.97 6.923-16.707l29.46-5.892c10.157-2.03 17.53-11.022 17.53-21.378v-1.248h26.946V277.2c0 4.464 3.618 8.083 8.084 8.083 4.466 0 8.084-3.62 8.084-8.084V167.073H478.82c3.464 8.69 6.444 17.646 8.902 26.85 1.153 4.314 5.583 6.876 9.897 5.725 4.313-1.152 6.876-5.584 5.724-9.898C473.492 78.03 371.78 0 256 0c-14.635 0-29.312 1.246-43.626 3.704-4.4.756-7.354 4.936-6.6 9.336s4.928 7.356 9.337 6.6c13.412-2.303 27.17-3.47 40.89-3.47 92.894 0 176.116 53.604 215.667 134.736H361.095v-45.81c0-24.357-8.524-48.1-24.003-66.854-2.84-3.443-7.937-3.93-11.38-1.09-3.444 2.842-3.93 7.938-1.09 11.382 13.094 15.864 20.304 35.952 20.304 56.56v45.812H317.98v-1.247c0-10.357-7.373-19.35-17.53-21.38l-29.46-5.892c-1.874-5.74-4.192-11.33-6.923-16.708l16.668-25c5.745-8.62 4.6-20.19-2.725-27.512l-13.196-13.196c-7.32-7.323-18.89-8.47-27.51-2.725l-25.002 16.667c-5.378-2.732-10.97-5.05-16.708-6.923L189.7 17.53C187.67 7.372 178.68 0 168.32 0H149.66c-10.356 0-19.348 7.372-21.38 17.527l-5.892 29.462c-5.74 1.873-11.33 4.19-16.708 6.922L80.676 37.244c-8.617-5.745-20.188-4.602-27.51 2.724L39.97 53.165c-7.323 7.323-8.47 18.893-2.724 27.51l16.667 25.002c-2.73 5.378-5.048 10.97-6.922 16.708l-29.46 5.892C7.37 130.31 0 139.3 0 149.657v18.664c0 10.358 7.372 19.35 17.528 21.38zm-1.36-40.042c0-2.676 1.906-5 4.53-5.524l34.205-6.84c2.985-.598 5.38-2.82 6.2-5.75 2.18-7.793 5.298-15.315 9.263-22.355 1.494-2.653 1.37-5.92-.318-8.453l-19.35-29.03c-1.485-2.226-1.19-5.216.703-7.11l13.2-13.196c1.89-1.892 4.88-2.188 7.108-.703l29.03 19.353c2.532 1.688 5.8 1.81 8.452.317 7.04-3.966 14.56-7.082 22.353-9.262 2.93-.82 5.152-3.215 5.75-6.2l6.84-34.207c.525-2.625 2.85-4.53 5.525-4.53h18.663c2.676 0 5 1.906 5.525 4.53l6.842 34.208c.597 2.984 2.82 5.38 5.75 6.2 7.792 2.18 15.313 5.296 22.353 9.26 2.652 1.494 5.918 1.373 8.452-.316l29.03-19.353c2.225-1.483 5.215-1.19 7.11.704L266.578 64.6c1.894 1.893 2.19 4.883.705 7.11l-19.353 29.03c-1.688 2.532-1.812 5.798-.318 8.45 3.966 7.04 7.082 14.562 9.263 22.357.82 2.93 3.215 5.15 6.2 5.748l34.206 6.84c2.626.526 4.53 2.85 4.53 5.525v18.663c0 2.677-1.906 5-4.53 5.525l-34.205 6.84c-2.985.598-5.38 2.82-6.2 5.75-2.18 7.793-5.298 15.315-9.263 22.355-1.494 2.652-1.37 5.92.318 8.452l19.353 29.03c1.484 2.226 1.19 5.216-.704 7.11l-13.2 13.196c-1.89 1.892-4.88 2.188-7.108.704l-29.03-19.353c-2.534-1.69-5.8-1.812-8.452-.318-7.04 3.966-14.562 7.082-22.353 9.262-2.93.82-5.152 3.215-5.75 6.2l-6.84 34.207c-.525 2.626-2.85 4.53-5.525 4.53H149.66c-2.676 0-5-1.905-5.525-4.53l-6.842-34.207c-.597-2.984-2.82-5.38-5.75-6.2-7.792-2.18-15.313-5.296-22.353-9.26-1.235-.696-2.602-1.04-3.968-1.04-1.566 0-3.13.454-4.484 1.357l-29.03 19.353c-2.226 1.483-5.215 1.19-7.11-.704l-13.195-13.2c-1.894-1.892-2.19-4.882-.705-7.11l19.353-29.028c1.69-2.533 1.813-5.8.32-8.452-3.967-7.04-7.083-14.56-9.264-22.356-.82-2.93-3.215-5.15-6.2-5.748l-34.206-6.84c-2.625-.525-4.53-2.85-4.53-5.525V149.66z"
       id="path11" />
    <path
       d="M158.99 212.345c14.046 0 27.31-5.413 37.34-15.244 3.19-3.124 3.24-8.243.115-11.43-3.126-3.193-8.245-3.24-11.43-.117-6.993 6.85-16.236 10.624-26.027 10.624-20.505 0-37.187-16.683-37.187-37.187 0-20.505 16.684-37.187 37.188-37.187 20.505 0 37.187 16.683 37.187 37.187 0 4.465 3.62 8.084 8.084 8.084 4.465 0 8.083-3.62 8.083-8.084 0-29.42-23.936-53.356-53.356-53.356S105.63 129.57 105.63 158.99c.004 29.42 23.94 53.355 53.36 53.355zM353.01 369.718c-20.505 0-37.187 16.683-37.187 37.187 0 20.505 16.683 37.187 37.187 37.187 20.505 0 37.187-16.683 37.187-37.187 0-20.505-16.682-37.187-37.187-37.187zm0 58.206c-11.59 0-21.02-9.43-21.02-21.02s9.43-21.018 21.02-21.018 21.02 9.43 21.02 21.02-9.43 21.018-21.02 21.018z"
       id="path13" />
    <path
       d="M509.79 222.216c-.584-4.427-4.652-7.538-9.073-6.958-4.426.584-7.542 4.646-6.958 9.073 1.373 10.42 2.07 21.077 2.07 31.67 0 30.53-5.84 60.79-17.047 88.927h-42.726c-.696-2.988-2.206-5.808-4.493-8.093l-8.483-8.483c-5.678-5.677-14.648-6.564-21.327-2.11l-14.686 9.79c-2.61-1.255-5.288-2.365-8.022-3.323l-3.46-17.306c-1.576-7.873-8.547-13.587-16.576-13.587h-12c-8.028 0-15 5.715-16.574 13.588l-3.46 17.307c-2.735.96-5.413 2.068-8.023 3.323l-14.686-9.79c-6.68-4.454-15.65-3.566-21.327 2.11l-8.485 8.485c-5.678 5.678-6.565 14.65-2.11 21.33l9.788 14.684c-1.255 2.61-2.365 5.287-3.323 8.02l-17.308 3.462c-7.873 1.575-13.587 8.546-13.587 16.575v11.998c0 8.03 5.715 15 13.588 16.575l17.307 3.46c.958 2.735 2.068 5.413 3.323 8.023l-9.79 14.684c-4.454 6.68-3.567 15.652 2.113 21.33l8.483 8.484c5.68 5.68 14.65 6.566 21.327 2.113l14.686-9.79c2.61 1.254 5.288 2.364 8.022 3.322l3.46 17.306c1.576 7.875 8.547 13.59 16.576 13.59h12c8.028 0 15-5.716 16.574-13.59l3.46-17.305c2.735-.96 5.413-2.068 8.023-3.323l14.686 9.79c6.682 4.456 15.652 3.566 21.327-2.11l8.485-8.485c5.678-5.678 6.565-14.65 2.11-21.33l-9.788-14.684c1.255-2.61 2.365-5.288 3.323-8.022l17.308-3.46c7.873-1.575 13.587-8.546 13.587-16.575v-11.998c0-8.03-5.715-15-13.587-16.575l-17.308-3.46c-.958-2.735-2.068-5.413-3.323-8.023l7.834-11.754h39.914c-1.742 3.575-3.575 7.11-5.5 10.595-2.156 3.91-.736 8.828 3.173 10.985 3.908 2.158 8.826.737 10.983-3.173 4.11-7.446 7.833-15.09 11.164-22.902.14-.282.264-.575.372-.874C505.076 324.34 512 290.324 512 256c0-11.298-.744-22.665-2.21-33.784zm-68.444 177.97c.342.07.59.372.59.72v11.998c0 .35-.247.652-.59.72l-21.99 4.398c-2.985.597-5.38 2.82-6.2 5.75-1.34 4.787-3.253 9.407-5.69 13.73-1.493 2.653-1.37 5.92.32 8.453l12.44 18.662c.193.29.155.68-.092.926l-8.485 8.484c-.248.246-.638.285-.927.092l-18.662-12.442c-2.533-1.69-5.8-1.81-8.45-.317-4.327 2.437-8.946 4.35-13.733 5.69-2.93.82-5.15 3.216-5.748 6.2l-4.4 21.99c-.067.343-.37.592-.72.592h-11.997c-.348 0-.65-.248-.72-.59l-4.398-21.99c-.597-2.986-2.82-5.38-5.748-6.2-4.787-1.34-9.408-3.255-13.732-5.69-1.235-.696-2.602-1.04-3.968-1.04-1.566 0-3.13.454-4.484 1.357L295.3 474.12c-.29.194-.68.154-.926-.092l-8.483-8.483c-.246-.247-.285-.636-.09-.928l12.44-18.662c1.687-2.533 1.81-5.8.317-8.452-2.437-4.325-4.35-8.944-5.69-13.73-.82-2.932-3.214-5.153-6.2-5.75l-21.988-4.4c-.344-.068-.593-.37-.593-.72v-11.998c0-.35.248-.652.59-.72l21.99-4.398c2.986-.597 5.38-2.82 6.2-5.75 1.34-4.787 3.254-9.407 5.69-13.73 1.494-2.653 1.37-5.92-.318-8.453l-12.44-18.662c-.195-.29-.157-.68.09-.926l8.485-8.484c.245-.247.637-.286.926-.092l18.663 12.44c2.532 1.69 5.8 1.81 8.452.318 4.326-2.436 8.945-4.35 13.732-5.69 2.93-.82 5.15-3.215 5.748-6.2l4.398-21.99c.068-.342.372-.59.72-.59h11.998c.35 0 .652.247.72.59l4.4 21.99c.596 2.985 2.818 5.38 5.747 6.2 4.787 1.34 9.408 3.254 13.732 5.69 2.65 1.493 5.917 1.37 8.45-.317l18.663-12.44c.29-.195.68-.156.927.092l8.483 8.483c.247.247.286.636.092.928l-12.44 18.662c-1.688 2.533-1.812 5.8-.318 8.452 2.437 4.324 4.35 8.944 5.69 13.73.82 2.932 3.214 5.153 6.2 5.75l21.99 4.4zM271.08 495.365c-4.99.31-10.062.467-15.08.467-64.06 0-124.29-24.947-169.586-70.244-3.158-3.158-8.276-3.156-11.433 0s-3.156 8.275 0 11.432C123.334 485.372 187.62 512 256 512c5.35 0 10.76-.167 16.08-.497 4.456-.276 7.845-4.113 7.568-8.57-.275-4.454-4.075-7.85-8.568-7.568z"
       id="path15" />
    <path
       d="M40.313 361.095h110.592v45.81c0 20.864 6.1 41.026 17.646 58.306 1.558 2.335 4.12 3.596 6.73 3.596 1.542 0 3.103-.442 4.483-1.362 3.712-2.48 4.71-7.5 2.23-11.213-9.76-14.612-14.92-31.67-14.92-49.323v-45.81h80.842c4.466 0 8.084-3.62 8.084-8.085 0-4.465-3.62-8.084-8.085-8.084h-80.842V339c0-4.465-3.618-8.084-8.084-8.084-4.467 0-8.085 3.62-8.085 8.084v5.928H33.137c-11.19-27.992-16.97-58.004-16.97-88.928 0-17.193 1.828-34.352 5.433-50.998.945-4.363-1.826-8.667-6.19-9.612-4.37-.943-8.666 1.827-9.612 6.19C1.95 219.348 0 237.657 0 256c0 55.886 17.686 108.983 51.146 153.554 2.68 3.57 7.748 4.292 11.32 1.61 3.57-2.68 4.29-7.747 1.61-11.318-9.212-12.272-17.15-25.234-23.763-38.75z"
       id="path17" />
  </symbol>
  <symbol
     id="validation"
     viewBox="0 0 512 512">
    <path
       d="M245.221 328.758h21.558c4.465 0 8.084-3.62 8.084-8.084 0-4.465-3.62-8.084-8.084-8.084h-21.558c-4.465 0-8.084 3.62-8.084 8.084 0 4.464 3.619 8.084 8.084 8.084zM299.116 328.758h21.558c4.465 0 8.084-3.62 8.084-8.084 0-4.465-3.62-8.084-8.084-8.084h-21.558c-4.465 0-8.084 3.62-8.084 8.084 0 4.464 3.619 8.084 8.084 8.084zM243.884 206.589c1.505 2.258 4.034 3.6 6.725 3.6.167 0 .335-.005.503-.016 2.876-.179 5.44-1.876 6.728-4.453l32.337-64.674c1.997-3.994.378-8.85-3.615-10.846-3.991-1.996-8.848-.377-10.846 3.615l-26.108 52.213-13.831-20.745c-2.477-3.714-7.496-4.719-11.21-2.242-3.716 2.476-4.719 7.496-2.242 11.21l21.559 32.338zM191.326 328.758h21.558c4.465 0 8.084-3.62 8.084-8.084 0-4.465-3.62-8.084-8.084-8.084h-21.558c-4.465 0-8.084 3.62-8.084 8.084 0 4.464 3.62 8.084 8.084 8.084z"
       id="path20" />
    <path
       d="M493.137 32.337H361.095V18.863c0-10.4-8.463-18.863-18.863-18.863H169.768c-10.401 0-18.863 8.463-18.863 18.863v13.474H18.863C8.463 32.337 0 40.799 0 51.2v291.032c0 10.401 8.463 18.863 18.863 18.863h175.158v13.474c0 10.401 8.463 18.863 18.863 18.863h13.474v59.284h-35.032c-10.401 0-18.863 8.463-18.863 18.863v24.253H148.21c-4.465 0-8.084 3.62-8.084 8.084 0 4.465 3.62 8.084 8.084 8.084h118.568c4.465 0 8.084-3.62 8.084-8.084 0-4.465-3.62-8.084-8.084-8.084h-78.147v-24.253c0-1.485 1.209-2.695 2.695-2.695h129.347c1.485 0 2.695 1.209 2.695 2.695v24.253h-24.253c-4.465 0-8.084 3.62-8.084 8.084 0 4.465 3.62 8.084 8.084 8.084h64.674c4.465 0 8.084-3.62 8.084-8.084 0-4.465-3.62-8.084-8.084-8.084h-24.253v-24.253c0-10.401-8.463-18.863-18.863-18.863h-35.032v-59.284h13.474c10.401 0 18.863-8.463 18.863-18.863v-13.474h175.158c10.401 0 18.863-8.463 18.863-18.863V51.2c.001-10.401-8.462-18.863-18.862-18.863zM269.474 452.716h-26.947v-59.284h26.947v59.284zm226.358-110.484c0 1.485-1.209 2.695-2.695 2.695h-204.8c-4.465 0-8.084 3.62-8.084 8.084 0 4.465 3.62 8.084 8.084 8.084h13.474v13.474c0 1.485-1.209 2.695-2.695 2.695h-86.232c-1.485 0-2.695-1.209-2.695-2.695v-13.474H256c4.465 0 8.084-3.62 8.084-8.084 0-4.465-3.62-8.084-8.084-8.084H18.863c-1.485 0-2.695-1.209-2.695-2.695v-45.81h479.663v45.81zm0-61.979H16.168v-102.4H78.54l14.504 29.007c2.297 4.594 6.915 7.447 12.051 7.447s9.754-2.854 12.051-7.448l14.504-29.006h41.201c4.08 42.284 39.814 75.453 83.149 75.453s79.069-33.169 83.149-75.453h46.199c3.062 0 5.862-1.73 7.231-4.469l14.327-28.654 14.327 28.654c1.369 2.739 4.168 4.469 7.231 4.469h67.368v102.4zm-307.2-110.485c0-37.146 30.222-67.368 67.368-67.368s67.368 30.222 67.368 67.368-30.222 67.369-67.368 67.369-67.368-30.222-67.368-67.369zm307.2-8.084H433.46l-14.504-29.007c-2.297-4.594-6.915-7.447-12.051-7.447s-9.754 2.854-12.051 7.448l-14.503 29.006h-41.203c-4.08-42.284-39.814-75.453-83.149-75.453S176.93 119.4 172.85 161.684h-46.198c-3.062 0-5.861 1.73-7.231 4.469l-14.327 28.655-14.327-28.655c-1.369-2.739-4.168-4.469-7.231-4.469H16.168V51.2c0-1.485 1.209-2.695 2.695-2.695h269.474c4.465 0 8.084-3.62 8.084-8.084 0-4.465-3.62-8.084-8.084-8.084H167.074V18.863c0-1.485 1.209-2.695 2.695-2.695h172.463c1.485 0 2.695 1.209 2.695 2.695v13.474h-24.253c-4.465 0-8.084 3.62-8.084 8.084 0 4.465 3.62 8.084 8.084 8.084h172.463c1.485 0 2.695 1.209 2.695 2.695v110.484z"
       id="path22" />
  </symbol>
  <symbol
     id="engineering"
     viewBox="0 0 512 512">
    <path
       d="M482.358 0H105.095c-4.465 0-8.084 3.619-8.084 8.084s3.62 8.084 8.084 8.084h377.263c7.43 0 13.474 6.044 13.474 13.474v261.389h-45.81c-4.465 0-8.084 3.619-8.084 8.084 0 4.466 3.62 8.084 8.084 8.084h45.81v78.147c0 4.796-2.584 9.271-6.742 11.676-3.864 2.236-5.186 7.181-2.95 11.046 1.498 2.589 4.213 4.037 7.005 4.037 1.373 0 2.766-.35 4.041-1.088 9.137-5.286 14.815-15.123 14.815-25.671V29.642C512 13.298 498.703 0 482.358 0z"
       id="path25" />
    <path
       d="M420.379 353.01c0 16.344 13.297 29.642 29.642 29.642s29.642-13.298 29.642-29.642-13.297-29.642-29.642-29.642-29.642 13.298-29.642 29.642zm29.642-13.473c7.43 0 13.474 6.044 13.474 13.474s-6.044 13.474-13.474 13.474-13.474-6.044-13.474-13.474 6.044-13.474 13.474-13.474zM177.853 406.905c0-4.466-3.62-8.084-8.084-8.084H29.642c-7.43 0-13.474-6.044-13.474-13.474V307.2h196.716c4.465 0 8.084-3.618 8.084-8.084 0-4.466-3.62-8.084-8.084-8.084H16.168V29.642c0-7.43 6.044-13.474 13.474-13.474h43.116c4.465 0 8.084-3.619 8.084-8.084S77.223 0 72.758 0H29.642C13.297 0 0 13.298 0 29.642v355.705c0 16.344 13.297 29.642 29.642 29.642h140.126c4.465 0 8.085-3.618 8.085-8.084z"
       id="path27" />
    <path
       d="M453.953 400.724l-71.302-21.391v-25.285c5.782-2.746 11.217-6.263 16.143-10.489 13.183-11.309 21.896-26.992 24.537-44.158l8.985-58.407c8.768-3.359 15.009-11.862 15.009-21.796 0-6.231-2.426-12.089-6.832-16.495v-.001l-15.744-15.743-11.127-33.382c-6.435-19.303-23.528-32.768-43.452-34.755-2.979-6.503-9.551-11.032-17.16-11.032h-43.116c-7.609 0-14.18 4.529-17.16 11.032-19.924 1.987-37.017 15.452-43.452 34.755l-11.127 33.382-15.744 15.743c-4.406 4.406-6.833 10.265-6.833 16.496 0 9.934 6.241 18.438 15.009 21.796l8.985 58.407c2.641 17.167 11.356 32.849 24.537 44.158 4.926 4.225 10.361 7.741 16.143 10.489v25.285l-71.302 21.391c-21.824 6.547-36.488 26.255-36.488 49.041v43.372c0 10.401 8.463 18.863 18.863 18.863h194.021c4.465 0 8.084-3.618 8.084-8.084 0-4.466-3.62-8.084-8.084-8.084H258.695v-24.253c0-4.466-3.62-8.084-8.084-8.084s-8.084 3.618-8.084 8.084v24.253h-51.2c-1.485 0-2.695-1.208-2.695-2.695v-43.372c0-15.59 10.033-29.075 24.965-33.555l75.926-22.778h83.859l75.927 22.778c14.932 4.48 24.965 17.965 24.965 33.555v43.372c0 1.486-1.209 2.695-2.695 2.695h-51.2v-24.253c0-4.466-3.62-8.084-8.084-8.084s-8.084 3.618-8.084 8.084v32.337c0 4.466 3.62 8.084 8.084 8.084h59.284c10.401 0 18.863-8.463 18.863-18.863v-43.372c0-22.786-14.664-42.494-36.489-49.041zM238.908 226.357c-3.948 0-7.159-3.212-7.159-7.16 0-1.912.745-3.71 2.096-5.062l17.093-17.092c.887-.888 1.557-1.97 1.953-3.16l11.731-35.192c4.041-12.123 14.224-20.88 26.411-23.287v34.365c0 4.466 3.62 8.084 8.084 8.084 4.465 0 8.084-3.619 8.084-8.084v-43.116c0-1.486 1.209-2.695 2.695-2.695h43.116c1.485 0 2.695 1.208 2.695 2.695v43.116c0 4.466 3.62 8.084 8.084 8.084s8.084-3.619 8.084-8.084v-34.364c12.187 2.407 22.368 11.164 26.409 23.287l11.731 35.192c.397 1.191 1.066 2.273 1.953 3.16l17.092 17.091c1.333 1.333 2.098 3.179 2.098 5.063 0 3.949-3.211 7.16-7.159 7.16v-.001H238.908zm112.514 134.738c5.093 0 10.142-.536 15.064-1.578v17.746h-70.063v-17.746c4.922 1.042 9.969 1.578 15.064 1.578h9.189c4.465 0 8.084-3.618 8.084-8.084 0-4.466-3.62-8.084-8.084-8.084h-9.189c-28.132 0-51.655-20.181-55.932-47.986l-8.372-54.414h168.542l-8.371 54.414c-4.278 27.804-27.8 47.986-55.932 47.986-4.465 0-8.084 3.618-8.084 8.084-.002 4.465 3.618 8.084 8.084 8.084zM61.979 323.368c-16.345 0-29.642 13.298-29.642 29.642s13.297 29.642 29.642 29.642h75.453c16.345 0 29.642-13.298 29.642-29.642s-13.297-29.642-29.642-29.642H61.979zm88.926 29.642c0 7.43-6.044 13.474-13.474 13.474H61.979c-7.43 0-13.474-6.044-13.474-13.474s6.044-13.474 13.474-13.474h75.453c7.429.001 13.473 6.045 13.473 13.474z"
       id="path29" />
    <path
       d="M153.6 43.116H78.147c-7.43 0-13.474 6.044-13.474 13.474v32.337c0 7.43 6.044 13.474 13.474 13.474h29.642v19.257l-35.665 17.833c-4.596 2.296-7.45 6.915-7.45 12.052v4.118c0 5.137 2.854 9.756 7.448 12.051l35.668 17.834V204.8H78.147c-7.43 0-13.474 6.044-13.474 13.474v32.337c0 7.43 6.044 13.474 13.474 13.474H153.6c7.43 0 13.474-6.044 13.474-13.474v-8.084h24.253c4.465 0 8.084-3.618 8.084-8.084 0-4.466-3.62-8.084-8.084-8.084h-24.253v-8.084c0-7.43-6.044-13.474-13.474-13.474h-29.642v-19.257l35.665-17.833c4.596-2.296 7.45-6.915 7.45-12.052v-4.118c0-5.137-2.854-9.756-7.448-12.051l-35.668-17.834V102.4H153.6c7.43 0 13.474-6.044 13.474-13.474v-8.084h264.084v78.147c0 4.466 3.62 8.084 8.084 8.084 4.465 0 8.084-3.618 8.084-8.084V72.758c0-4.466-3.62-8.084-8.084-8.084H167.074V56.59c0-7.43-6.044-13.474-13.474-13.474zm-2.695 177.852v26.947H80.842v-26.947h70.063zm0-67.76v.786l-35.032 17.516-35.032-17.516v-.786l35.032-17.516 35.032 17.516zm0-66.976H80.842V59.284h70.063v26.948zM183.242 353.01c0 16.344 13.297 29.642 29.642 29.642s29.642-13.298 29.642-29.642-13.297-29.642-29.642-29.642-29.642 13.298-29.642 29.642zm43.116 0c0 7.43-6.044 13.474-13.474 13.474s-13.474-6.044-13.474-13.474 6.044-13.474 13.474-13.474 13.474 6.045 13.474 13.474z"
       id="path31" />
  </symbol>
  <symbol
     id="management"
     viewBox="0 0 512 512">
    <path
       d="M174.91 70.063h97.505c6.268 0 12.107-3.097 15.621-8.287 3.514-5.19 4.222-11.763 1.895-17.582l-12.935-32.337C274.115 4.654 267.24 0 259.482 0h-71.636c-7.76 0-14.635 4.654-17.516 11.858l-12.935 32.337c-2.327 5.82-1.619 12.393 1.895 17.582s9.353 8.286 15.62 8.286zm-2.502-19.864l12.935-32.337c.412-1.028 1.394-1.693 2.502-1.693h71.636c1.108 0 2.09.665 2.502 1.693l12.935 32.337c.462 1.155.028 2.068-.271 2.511-.299.443-.987 1.185-2.231 1.185H174.91c-1.244 0-1.933-.743-2.231-1.185-.299-.442-.732-1.356-.271-2.511zM177.853 115.874c0-4.466-3.619-8.084-8.084-8.084H94.316c-4.466 0-8.084 3.618-8.084 8.084 0 4.466 3.619 8.084 8.084 8.084h75.453c4.465 0 8.084-3.619 8.084-8.084zM496.836 176.277l-22.163-4.432c-1.332-3.935-2.926-7.781-4.765-11.503l12.537-18.806c4.97-7.456 3.98-17.465-2.356-23.802l-10.369-10.369c-5.945-5.945-15.123-7.185-22.393-3.208V61.979c0-16.344-13.298-29.642-29.642-29.642H309.895c-4.466 0-8.084 3.618-8.084 8.084 0 4.466 3.618 8.084 8.084 8.084h67.369v26.981c-8.639.347-16.037 6.592-17.744 15.13l-4.432 22.162c-3.935 1.332-7.78 2.926-11.504 4.766l-18.805-12.537c-7.457-4.97-17.466-3.979-23.802 2.356l-10.369 10.369c-6.336 6.337-7.326 16.346-2.356 23.802l12.537 18.805c-1.84 3.724-3.434 7.57-4.766 11.504l-22.161 4.432c-8.786 1.757-15.164 9.536-15.164 18.497v14.664c0 8.961 6.378 16.74 15.164 18.497l22.161 4.432c1.332 3.935 2.927 7.78 4.766 11.504l-12.537 18.805c-4.97 7.456-3.98 17.465 2.356 23.802l10.369 10.369c6.337 6.335 16.346 7.329 23.802 2.356l18.805-12.537c3.724 1.84 7.57 3.434 11.504 4.766l4.432 22.161c1.757 8.786 9.536 15.164 18.497 15.164h14.664c8.961 0 16.74-6.378 18.497-15.164l4.432-22.161c3.935-1.332 7.78-2.926 11.504-4.766l18.805 12.537c7.458 4.971 17.467 3.98 23.802-2.356l10.369-10.369c6.336-6.337 7.326-16.346 2.356-23.802l-12.537-18.805c1.84-3.724 3.434-7.57 4.766-11.504l22.161-4.432c8.786-1.757 15.164-9.536 15.164-18.497v-14.664c0-8.959-6.378-16.738-15.164-18.495zM393.432 48.505h24.253c7.43 0 13.474 6.044 13.474 13.474v52.869l-4.045 2.697c-3.724-1.84-7.57-3.434-11.504-4.766l-4.432-22.161c-1.707-8.538-9.105-14.783-17.744-15.13V48.505zm102.4 160.932c0 1.279-.911 2.392-2.167 2.642l-26.877 5.375c-2.985.597-5.38 2.819-6.2 5.749-1.674 5.986-4.069 11.767-7.118 17.181-1.494 2.653-1.37 5.919.318 8.452l15.205 22.807c.71 1.065.568 2.495-.337 3.4l-10.369 10.369c-.905.906-2.334 1.048-3.4.337l-22.807-15.205c-2.534-1.69-5.8-1.811-8.452-.318-5.413 3.049-11.194 5.443-17.181 7.118-2.931.82-5.152 3.215-5.75 6.2l-5.375 26.877c-.25 1.256-1.361 2.167-2.642 2.167h-14.664c-1.279 0-2.392-.911-2.642-2.167l-5.375-26.877c-.597-2.985-2.819-5.38-5.75-6.2-5.986-1.674-11.767-4.069-17.181-7.118-1.235-.695-2.602-1.04-3.968-1.04-1.567 0-3.13.455-4.484 1.358l-22.807 15.205c-1.066.71-2.494.569-3.4-.337l-10.369-10.369c-.905-.904-1.048-2.335-.337-3.4l15.205-22.807c1.688-2.533 1.812-5.799.318-8.452-3.049-5.413-5.443-11.194-7.118-17.181-.82-2.931-3.215-5.152-6.2-5.75l-26.877-5.375c-1.256-.25-2.167-1.361-2.167-2.642v-14.664c0-1.279.911-2.392 2.167-2.642l26.877-5.375c2.985-.597 5.38-2.819 6.2-5.75 1.674-5.986 4.069-11.767 7.118-17.181 1.494-2.653 1.37-5.919-.318-8.452l-15.205-22.807c-.71-1.065-.568-2.495.337-3.4l10.369-10.369c.904-.907 2.333-1.049 3.4-.337l22.807 15.205c2.533 1.689 5.799 1.81 8.452.318 5.413-3.049 11.194-5.443 17.181-7.118 2.931-.82 5.152-3.215 5.75-6.2l5.375-26.877c.25-1.256 1.361-2.167 2.642-2.167h14.664c1.279 0 2.392.911 2.642 2.167l5.375 26.877c.597 2.985 2.819 5.38 5.75 6.2 5.986 1.674 11.767 4.069 17.181 7.118 2.653 1.494 5.919 1.372 8.452-.318l22.807-15.205c1.066-.711 2.495-.569 3.4.337l10.369 10.369c.905.904 1.048 2.335.337 3.4l-15.205 22.807c-1.688 2.533-1.812 5.799-.318 8.452 3.047 5.41 5.442 11.191 7.118 17.182.82 2.93 3.215 5.151 6.2 5.748l26.877 5.375c1.256.25 2.167 1.361 2.167 2.642v14.666z"
       id="path34" />
    <path
       d="M385.347 158.451c-24.072 0-43.655 19.583-43.655 43.655s19.583 43.655 43.655 43.655c4.466 0 8.084-3.618 8.084-8.084 0-4.466-3.618-8.084-8.084-8.084-15.156 0-27.486-12.33-27.486-27.486s12.33-27.486 27.486-27.486 27.486 12.33 27.486 27.486c0 6.079-1.942 11.837-5.617 16.653-2.709 3.549-2.028 8.622 1.522 11.331 3.549 2.71 8.623 2.026 11.331-1.522 5.844-7.657 8.932-16.809 8.932-26.462.001-24.073-19.582-43.656-43.654-43.656zM94.316 140.126c-4.466 0-8.084 3.618-8.084 8.084 0 4.466 3.619 8.084 8.084 8.084h53.895c4.466 0 8.084-3.618 8.084-8.084 0-4.466-3.618-8.084-8.084-8.084H94.316z"
       id="path36" />
    <path
       d="M439.242 312.589c-4.466 0-8.084 3.618-8.084 8.084v161.684c0 7.43-6.044 13.474-13.474 13.474H29.642c-7.43 0-13.474-6.044-13.474-13.474V61.979c0-7.43 6.044-13.474 13.474-13.474h24.253v390.737c0 10.401 8.463 18.863 18.863 18.863h226.358c4.466 0 8.084-3.619 8.084-8.084 0-4.466-3.618-8.084-8.084-8.084H72.758c-1.486 0-2.695-1.208-2.695-2.695v-24.253h307.2v24.254c0 1.486-1.208 2.695-2.695 2.695h-43.116c-4.466 0-8.084 3.619-8.084 8.084s3.619 8.084 8.084 8.084h43.116c10.401 0 18.863-8.463 18.863-18.863v-86.232c0-4.466-3.618-8.084-8.084-8.084-4.466 0-8.084 3.618-8.084 8.084v45.81h-307.2V317.98h35.449c4.115 0 7.949 1.843 10.521 5.056l30.17 37.712c5.655 7.07 14.092 11.125 23.147 11.125h57.547c8.602 0 16.768-3.728 22.4-10.23l40.263-46.456c2.924-3.374 2.559-8.48-.815-11.404-3.374-2.923-8.479-2.559-11.404.815l-40.263 46.457c-2.56 2.955-6.27 4.649-10.181 4.649h-57.546c-4.117 0-7.951-1.843-10.521-5.056l-30.17-37.713c-5.657-7.069-14.095-11.124-23.147-11.124h-35.45V210.19h158.451c4.466 0 8.084-3.618 8.084-8.084 0-4.466-3.618-8.084-8.084-8.084H70.063V48.505h67.369c4.466 0 8.084-3.618 8.084-8.084 0-4.466-3.618-8.084-8.084-8.084H29.642C13.298 32.337 0 45.635 0 61.979v420.379C0 498.702 13.298 512 29.642 512h388.042c16.344 0 29.642-13.298 29.642-29.642V320.674c0-4.466-3.618-8.085-8.084-8.085z"
       id="path38" />
  </symbol>
  <symbol
     id="manufacturing"
     viewBox="0 0 512 512">
    <path
       d="M503.916 495.832h-13.474V299.116c0-4.465-3.62-8.084-8.084-8.084H331.453c-4.465 0-8.084 3.62-8.084 8.084s3.62 8.084 8.084 8.084h142.821v37.726H256c-4.465 0-8.084 3.62-8.084 8.084v75.453c0 4.465 3.62 8.084 8.084 8.084h218.274v59.284h-67.368c-4.465 0-8.084 3.62-8.084 8.084 0 4.465 3.62 8.084 8.084 8.084h97.01c4.465 0 8.084-3.62 8.084-8.084 0-4.464-3.62-8.083-8.084-8.083zm-29.642-75.453H414.99v-35.032c0-4.465-3.62-8.084-8.084-8.084-4.465 0-8.084 3.62-8.084 8.084v35.032h-59.284v-35.032c0-4.465-3.62-8.084-8.084-8.084s-8.084 3.62-8.084 8.084v35.032h-59.284v-59.284h210.189v59.284zM212.884 156.295c22.289 0 40.421-18.132 40.421-40.421s-18.132-40.421-40.421-40.421-40.421 18.132-40.421 40.421c0 22.288 18.133 40.421 40.421 40.421zm0-64.674c13.373 0 24.253 10.879 24.253 24.253 0 13.373-10.879 24.253-24.253 24.253s-24.253-10.879-24.253-24.253c.001-13.374 10.88-24.253 24.253-24.253z"
       id="path41" />
    <path
       d="M374.568 495.832H206.949c2.931-5.731 3.932-12.305 2.756-18.776l-13.719-75.453c-2.564-14.103-14.829-24.34-29.164-24.34h-7.132c-14.335 0-26.599 10.237-29.164 24.34l-13.719 75.453c-1.177 6.471-.175 13.045 2.756 18.776H37.726V93.456l38.714 7.97c4.372.902 8.648-1.914 9.548-6.287.9-4.373-1.914-8.648-6.287-9.548L31.273 75.62c-2.379-.492-4.854.115-6.738 1.651-1.884 1.535-2.977 3.836-2.977 6.266v412.295H8.084c-4.465 0-8.084 3.62-8.084 8.084C0 508.38 3.62 512 8.084 512h366.484c4.465 0 8.084-3.62 8.084-8.084.001-4.465-3.619-8.084-8.084-8.084zm-183.683-4.841c-2.568 3.076-6.338 4.841-10.345 4.841h-9.201v-45.81c0-4.465-3.62-8.084-8.084-8.084s-8.084 3.62-8.084 8.084v45.81h-9.201c-4.007 0-7.777-1.764-10.345-4.841-2.568-3.076-3.628-7.101-2.912-11.043l13.719-75.453c1.166-6.411 6.74-11.064 13.256-11.064h7.132c6.516 0 12.091 4.652 13.256 11.064l13.719 75.453c.72 3.942-.342 7.966-2.91 11.043zM338.942 155.469l49.1 10.11v101.2c0 4.465 3.62 8.084 8.084 8.084s8.084-3.62 8.084-8.084v-107.79c0-3.836-2.697-7.145-6.454-7.918l-55.555-11.438c-4.372-.903-8.648 1.913-9.548 6.287-.9 4.374 1.916 8.649 6.289 9.549z"
       id="path43" />
    <path
       d="M111.386 140.076l19.732 3.946c1.148 3.335 2.5 6.598 4.045 9.765L124 170.531c-4.713 7.069-3.773 16.559 2.234 22.566l9.426 9.426c6.007 6.007 15.498 6.947 22.566 2.234l16.745-11.163c3.167 1.547 6.429 2.897 9.765 4.045l3.946 19.733c1.666 8.33 9.041 14.376 17.536 14.376h13.33c8.495 0 15.87-6.046 17.536-14.376l3.946-19.732c3.335-1.148 6.598-2.5 9.765-4.045l16.745 11.163c7.069 4.711 16.559 3.773 22.566-2.234l9.426-9.426c6.007-6.007 6.947-15.497 2.234-22.566l-11.163-16.745c1.547-3.167 2.898-6.43 4.045-9.765l19.733-3.946c8.33-1.666 14.376-9.041 14.376-17.536v-13.33c0-8.495-6.046-15.87-14.376-17.536l-19.732-3.946c-1.148-3.335-2.5-6.598-4.045-9.765l11.163-16.744c4.713-7.069 3.773-16.559-2.234-22.566l-9.426-9.426c-6.006-6.007-15.497-6.946-22.566-2.234l-16.745 11.163c-3.167-1.547-6.429-2.897-9.765-4.045l-3.946-19.733C235.419 6.046 228.044 0 219.55 0h-13.33c-8.495 0-15.87 6.046-17.536 14.376l-3.946 19.732c-3.335 1.148-6.598 2.5-9.765 4.045L158.229 26.99c-7.07-4.713-16.56-3.773-22.566 2.234l-9.426 9.426c-6.007 6.007-6.947 15.497-2.234 22.566l11.163 16.745c-1.547 3.167-2.897 6.429-4.045 9.765l-19.733 3.946c-8.33 1.666-14.376 9.041-14.376 17.535v13.33c-.001 8.496 6.044 15.871 14.374 17.539zm1.793-30.868c0-.815.58-1.522 1.379-1.682l24.433-4.886c2.984-.597 5.38-2.819 6.2-5.748 1.508-5.389 3.663-10.59 6.405-15.457 1.494-2.653 1.371-5.92-.317-8.452l-13.823-20.735c-.452-.677-.361-1.588.214-2.163l9.426-9.426c.577-.577 1.486-.666 2.164-.214l20.734 13.823c2.532 1.688 5.799 1.811 8.452.317 4.867-2.741 10.066-4.896 15.457-6.405 2.93-.82 5.151-3.216 5.748-6.2l4.886-24.433c.16-.799.867-1.379 1.682-1.379h13.33c.815 0 1.522.58 1.682 1.379l4.886 24.433c.597 2.984 2.819 5.38 5.748 6.2 5.389 1.508 10.59 3.663 15.457 6.405 2.653 1.494 5.92 1.371 8.452-.317l20.734-13.823c.677-.453 1.587-.363 2.164.213l9.426 9.426c.576.577.666 1.486.214 2.164l-13.823 20.734c-1.689 2.533-1.812 5.799-.317 8.452 2.741 4.867 4.896 10.066 6.405 15.457.82 2.93 3.216 5.151 6.2 5.748l24.433 4.886c.799.16 1.379.867 1.379 1.682v13.33c0 .815-.58 1.522-1.379 1.682l-24.433 4.886c-2.985.597-5.38 2.819-6.2 5.749-1.507 5.387-3.662 10.587-6.404 15.456-1.494 2.652-1.371 5.919.317 8.452l13.823 20.735c.452.677.361 1.588-.214 2.163l-9.426 9.426c-.577.577-1.486.666-2.164.214l-20.734-13.823c-2.532-1.689-5.799-1.811-8.452-.317-4.867 2.741-10.066 4.896-15.457 6.405-2.93.82-5.151 3.216-5.748 6.2l-4.886 24.433c-.16.799-.867 1.379-1.682 1.379h-13.33c-.815 0-1.522-.58-1.682-1.379l-4.886-24.433c-.597-2.984-2.819-5.38-5.748-6.2-5.389-1.508-10.59-3.663-15.457-6.405-1.235-.695-2.603-1.04-3.968-1.04-1.567 0-3.131.455-4.485 1.358l-20.735 13.823c-.676.453-1.588.362-2.163-.214l-9.426-9.426c-.576-.577-.666-1.486-.215-2.164l13.823-20.734c1.689-2.533 1.812-5.799.317-8.452-2.741-4.867-4.896-10.066-6.405-15.457-.82-2.93-3.216-5.151-6.2-5.748l-24.433-4.886c-.799-.16-1.379-.867-1.379-1.682v-13.33zM158.989 291.032c-4.465 0-8.084 3.62-8.084 8.084v53.895c0 4.465 3.62 8.084 8.084 8.084 4.465 0 8.084-3.62 8.084-8.084V307.2h132.042c4.465 0 8.084-3.62 8.084-8.084s-3.62-8.084-8.084-8.084H158.989z"
       id="path45" />
  </symbol>
  <symbol
     id="technical"
     viewBox="0 0 512 512">
    <path
       d="M83.537 350.316h64.674c10.401 0 18.863-8.463 18.863-18.863v-64.674c0-10.401-8.463-18.863-18.863-18.863H83.537c-10.401 0-18.863 8.463-18.863 18.863v10.779c0 4.466 3.62 8.084 8.084 8.084 4.465 0 8.084-3.618 8.084-8.084v-10.779c0-1.486 1.209-2.695 2.695-2.695h64.674c1.485 0 2.695 1.208 2.695 2.695v64.674c0 1.486-1.209 2.695-2.695 2.695H83.537c-1.485 0-2.695-1.208-2.695-2.695v-21.558c0-4.466-3.62-8.084-8.084-8.084-4.465 0-8.084 3.618-8.084 8.084v21.558c0 10.4 8.462 18.863 18.863 18.863zM444.632 377.263h-307.2c-4.465 0-8.084 3.618-8.084 8.084 0 4.466 3.62 8.084 8.084 8.084h307.2c28.231 0 51.2 22.969 51.2 51.2s-22.969 51.2-51.2 51.2H67.368c-28.231 0-51.2-22.969-51.2-51.2s22.969-51.2 51.2-51.2h37.726c4.465 0 8.084-3.618 8.084-8.084 0-4.466-3.62-8.084-8.084-8.084H67.368C30.222 377.263 0 407.484 0 444.632 0 481.779 30.222 512 67.368 512h377.263C481.778 512 512 481.779 512 444.632c0-37.148-30.222-67.369-67.368-67.369z"
       id="path48" />
    <path
       d="M59.284 443.554v2.156c0 4.466 3.62 8.084 8.084 8.084 4.465 0 8.084-3.619 8.084-8.084v-2.156c0-4.466-3.62-8.084-8.084-8.084-4.464-.001-8.084 3.618-8.084 8.084zM363.789 350.316h64.674c10.401 0 18.863-8.463 18.863-18.863V18.863c0-10.4-8.462-18.863-18.863-18.863h-64.674c-10.401 0-18.863 8.463-18.863 18.863v21.558c0 4.466 3.62 8.084 8.084 8.084 4.465 0 8.084-3.618 8.084-8.084V18.863c0-1.486 1.209-2.695 2.695-2.695h64.674c1.485 0 2.695 1.208 2.695 2.695v312.589c0 1.486-1.209 2.695-2.695 2.695h-64.674c-1.485 0-2.695-1.208-2.695-2.695V72.758c0-4.466-3.62-8.084-8.084-8.084-4.465 0-8.084 3.618-8.084 8.084v258.695c0 10.4 8.463 18.863 18.863 18.863zM223.663 350.316h64.674c10.401 0 18.863-8.463 18.863-18.863V180.547c0-10.401-8.463-18.863-18.863-18.863h-64.674c-10.401 0-18.863 8.463-18.863 18.863v21.558c0 4.466 3.62 8.084 8.084 8.084s8.084-3.618 8.084-8.084v-21.558c0-1.486 1.209-2.695 2.695-2.695h64.674c1.485 0 2.695 1.208 2.695 2.695v150.905c0 1.486-1.209 2.695-2.695 2.695h-64.674c-1.485 0-2.695-1.208-2.695-2.695v-97.011c0-4.466-3.62-8.084-8.084-8.084s-8.084 3.618-8.084 8.084v97.011c0 10.401 8.463 18.864 18.863 18.864zM291.032 444.632c0-19.317-15.716-35.032-35.032-35.032s-35.032 15.715-35.032 35.032c0 19.317 15.716 35.032 35.032 35.032s35.032-15.716 35.032-35.032zm-53.895 0c0-10.401 8.463-18.863 18.863-18.863 10.401 0 18.863 8.463 18.863 18.863 0 10.401-8.463 18.863-18.863 18.863-10.401 0-18.863-8.463-18.863-18.863zM452.716 445.709v-2.156c0-4.466-3.62-8.084-8.084-8.084-4.465 0-8.084 3.618-8.084 8.084v2.156c0 4.466 3.62 8.084 8.084 8.084 4.464.001 8.084-3.618 8.084-8.084z"
       id="path50" />
    <path
       d="M479.663 444.632c0-19.317-15.716-35.032-35.032-35.032-19.316 0-35.032 15.715-35.032 35.032 0 19.317 15.716 35.032 35.032 35.032 19.316-.001 35.032-15.716 35.032-35.032zm-53.895 0c0-10.401 8.463-18.863 18.863-18.863 10.401 0 18.863 8.463 18.863 18.863 0 10.401-8.463 18.863-18.863 18.863s-18.863-8.463-18.863-18.863zM32.337 444.632c0 19.317 15.716 35.032 35.032 35.032 19.316 0 35.032-15.715 35.032-35.032 0-19.317-15.716-35.032-35.032-35.032-19.316 0-35.032 15.715-35.032 35.032zm53.895 0c0 10.401-8.463 18.863-18.863 18.863-10.401 0-18.863-8.463-18.863-18.863 0-10.401 8.463-18.863 18.863-18.863 10.4-.001 18.863 8.462 18.863 18.863zM264.084 445.709v-2.156c0-4.466-3.62-8.084-8.084-8.084-4.465 0-8.084 3.618-8.084 8.084v2.156c0 4.466 3.62 8.084 8.084 8.084 4.465.001 8.084-3.618 8.084-8.084z"
       id="path52" />
  </symbol>
  <symbol
     id="process"
     viewBox="0 0 512 512">
    <path
       d="M153.6 247.916h-10.779c-4.466 0-8.084 3.619-8.084 8.084 0 4.466 3.618 8.084 8.084 8.084H153.6c4.466 0 8.084-3.619 8.084-8.084 0-4.466-3.618-8.084-8.084-8.084zM379.884 142.436c10.442 0 18.936-8.494 18.936-18.936 0-3.431-.932-6.799-2.698-9.742l-36.868-61.445c-3.402-5.672-9.623-9.195-16.238-9.195h-1.568c-6.614 0-12.837 3.523-16.237 9.194l-36.869 61.446c-1.766 2.943-2.698 6.311-2.698 9.742 0 10.442 8.494 18.936 18.936 18.936h75.304zm-78.072-18.937c0-.501.137-.994.395-1.424l36.868-61.448c.497-.828 1.407-1.343 2.373-1.343h1.568c.967 0 1.877.514 2.374 1.344l36.867 61.448c.258.43.395.923.395 1.424 0 1.526-1.242 2.768-2.768 2.768h-75.305c-1.527 0-2.768-1.243-2.767-2.769zM110.484 247.916H99.705c-4.466 0-8.084 3.619-8.084 8.084 0 4.466 3.618 8.084 8.084 8.084h10.779c4.466 0 8.084-3.619 8.084-8.084 0-4.466-3.618-8.084-8.084-8.084zM196.716 264.084c4.466 0 8.084-3.619 8.084-8.084 0-4.466-3.618-8.084-8.084-8.084h-10.779c-4.466 0-8.084 3.619-8.084 8.084 0 4.466 3.618 8.084 8.084 8.084h10.779zM188.632 164.379v-21.558c0-4.466-3.618-8.084-8.084-8.084-4.466 0-8.084 3.618-8.084 8.084v21.558c0 4.466 3.618 8.084 8.084 8.084 4.465 0 8.084-3.618 8.084-8.084z"
       id="path55" />
    <path
       d="M220.968 191.326v-75.453c0-4.466-3.619-8.084-8.084-8.084h-32.338c-4.466 0-8.084 3.618-8.084 8.084 0 4.466 3.618 8.084 8.084 8.084H204.8v59.284H91.621v-59.284h56.589c4.466 0 8.084-3.618 8.084-8.084 0-4.466-3.618-8.084-8.084-8.084H83.537c-4.466 0-8.084 3.618-8.084 8.084v75.453c0 4.466 3.619 8.084 8.084 8.084h129.347c4.466.001 8.084-3.618 8.084-8.084z"
       id="path57" />
    <path
       d="M148.211 134.737c-4.466 0-8.084 3.618-8.084 8.084v21.558c0 4.466 3.618 8.084 8.084 8.084 4.466 0 8.084-3.618 8.084-8.084v-21.558c0-4.466-3.619-8.084-8.084-8.084zM107.79 142.821v21.558c0 4.466 3.618 8.084 8.084 8.084 4.466 0 8.084-3.618 8.084-8.084v-21.558c0-4.466-3.618-8.084-8.084-8.084-4.466 0-8.084 3.618-8.084 8.084zM482.358 495.832h-13.474V29.642C468.884 13.298 455.586 0 439.242 0H245.221c-16.344 0-29.642 13.298-29.642 29.642V51.2c0 4.466 3.618 8.084 8.084 8.084 4.466 0 8.084-3.619 8.084-8.084V29.642c0-7.43 6.044-13.474 13.474-13.474h194.021c7.43 0 13.474 6.044 13.474 13.474v142.821H277.558c-4.466 0-8.084 3.619-8.084 8.084 0 4.466 3.618 8.084 8.084 8.084h175.158v199.411H256c-4.466 0-8.084 3.618-8.084 8.084 0 4.466 3.619 8.084 8.084 8.084h196.716v91.621h-45.81c-4.466 0-8.084 3.619-8.084 8.084 0 4.466 3.618 8.084 8.084 8.084h75.453c4.466 0 8.084-3.618 8.084-8.084-.001-4.465-3.619-8.083-8.085-8.083z"
       id="path59" />
    <path
       d="M396.126 274.863c16.344 0 29.642-13.298 29.642-29.642s-13.298-29.642-29.642-29.642-29.642 13.298-29.642 29.642 13.298 29.642 29.642 29.642zm0-43.116c7.43 0 13.474 6.044 13.474 13.474s-6.044 13.474-13.474 13.474c-7.43 0-13.474-6.044-13.474-13.474s6.044-13.474 13.474-13.474zM374.568 495.832H231.747V320.674c0-4.466-3.618-8.084-8.084-8.084-4.466 0-8.084 3.618-8.084 8.084v35.032h-40.421c-1.486 0-2.695-1.208-2.695-2.695v-24.444c9.13-1.312 16.168-9.185 16.168-18.671v-13.474h45.811c10.401 0 18.863-8.463 18.863-18.863V94.316c0-10.401-8.463-18.863-18.863-18.863H61.979c-10.401 0-18.863 8.463-18.863 18.863v183.242c0 10.401 8.463 18.863 18.863 18.863h45.811v13.474c0 9.487 7.039 17.359 16.168 18.671v24.444c0 28.231 22.969 51.2 51.2 51.2h40.421v91.621H29.642c-4.466 0-8.084 3.619-8.084 8.084 0 4.466 3.618 8.084 8.084 8.084h344.926c4.466 0 8.084-3.618 8.084-8.084.001-4.465-3.618-8.083-8.084-8.083zM61.979 280.253c-1.486 0-2.695-1.208-2.695-2.695v-45.811h13.474c4.466 0 8.084-3.618 8.084-8.084 0-4.466-3.618-8.084-8.084-8.084H59.284V94.316c0-1.486 1.208-2.695 2.695-2.695h172.463c1.486 0 2.695 1.208 2.695 2.695v121.263H105.095c-4.466 0-8.084 3.618-8.084 8.084 0 4.466 3.618 8.084 8.084 8.084h132.042v45.811c0 1.486-1.208 2.695-2.695 2.695H61.979zm64.674 32.336c-1.486 0-2.695-1.208-2.695-2.695V296.42h48.505v13.474c0 1.486-1.208 2.695-2.695 2.695h-43.115zm88.926 75.453h-40.421c-19.317 0-35.032-15.715-35.032-35.032v-24.253h16.168v24.253c0 10.401 8.463 18.863 18.863 18.863h40.421v16.169zM342.232 114.719c4.466 0 8.084-3.619 8.084-8.084v-13.86c0-4.466-3.618-8.084-8.084-8.084-4.466 0-8.084 3.618-8.084 8.084v13.858c-.001 4.467 3.618 8.086 8.084 8.086z"
       id="path61" />
    <path
       d="M331.453 274.863c10.401 0 18.863-8.463 18.863-18.863v-21.558c0-10.401-8.463-18.863-18.863-18.863h-32.337c-10.401 0-18.863 8.463-18.863 18.863V256c0 10.401 8.463 18.863 18.863 18.863h32.337zM296.421 256v-21.558c0-1.486 1.208-2.695 2.695-2.695h32.337c1.486 0 2.695 1.208 2.695 2.695V256c0 1.486-1.208 2.695-2.695 2.695h-32.337c-1.487 0-2.695-1.209-2.695-2.695zM258.695 320.674v21.558c0 10.401 8.463 18.863 18.863 18.863h53.895c10.401 0 18.863-8.463 18.863-18.863v-21.558c0-10.401-8.463-18.863-18.863-18.863h-53.895c-10.401 0-18.863 8.462-18.863 18.863zm75.452 0v21.558c0 1.486-1.208 2.695-2.695 2.695h-53.895c-1.486 0-2.695-1.208-2.695-2.695v-21.558c0-1.486 1.208-2.695 2.695-2.695h53.895c1.487 0 2.695 1.208 2.695 2.695zM385.347 458.105h-86.232c-4.466 0-8.084 3.618-8.084 8.084 0 4.466 3.619 8.084 8.084 8.084h86.232c4.466 0 8.084-3.618 8.084-8.084.001-4.465-3.618-8.084-8.084-8.084zM385.347 425.768h-86.232c-4.466 0-8.084 3.618-8.084 8.084 0 4.466 3.619 8.084 8.084 8.084h86.232c4.466 0 8.084-3.618 8.084-8.084.001-4.465-3.618-8.084-8.084-8.084zM396.126 361.095c16.344 0 29.642-13.298 29.642-29.642s-13.298-29.642-29.642-29.642-29.642 13.298-29.642 29.642 13.298 29.642 29.642 29.642zm0-43.116c7.43 0 13.474 6.044 13.474 13.474s-6.044 13.474-13.474 13.474c-7.43 0-13.474-6.044-13.474-13.474s6.044-13.474 13.474-13.474z"
       id="path63" />
  </symbol>
  <symbol
     id="symbol90"
     viewBox="0 0 512 512">
    <path
       d="m440 0h-400c-22.082031.0273438-39.9726562 17.917969-40 40v400c.0273438 22.082031 17.917969 39.972656 40 40h400c22.082031-.027344 39.972656-17.917969 40-40v-400c-.027344-22.082031-17.917969-39.9726562-40-40zm-400 16h400c13.253906 0 24 10.746094 24 24v24h-448v-24c0-13.253906 10.746094-24 24-24zm77.128906 427.472656c-.886718-3.078125-3.519531-5.332031-6.695312-5.730468l-38.402344-4.796876v-49.882812l38.402344-4.796875c3.183594-.398437 5.820312-2.660156 6.703125-5.746094 2.589843-9.183593 6.21875-18.039062 10.816406-26.398437 1.558594-2.804688 1.296875-6.269532-.671875-8.800782l-23.671875-30.503906 35.199219-35.199218 30.503906 23.671874c2.53125 1.96875 5.996094 2.238282 8.800781.679688 8.355469-4.609375 17.214844-8.238281 26.398438-10.824219 3.089843-.878906 5.355469-3.519531 5.753906-6.703125l4.796875-38.402344h49.875l4.796875 38.402344c.398437 3.183594 2.664063 5.824219 5.753906 6.703125 9.183594 2.585938 18.042969 6.214844 26.398438 10.824219 2.804687 1.558594 6.269531 1.289062 8.800781-.679688l30.503906-23.671874 35.199219 35.199218-23.671875 30.519532c-1.96875 2.535156-2.230469 5.996093-.671875 8.800781 4.597656 8.359375 8.226563 17.214843 10.816406 26.398437.882813 3.085938 3.519531 5.347656 6.703125 5.746094l38.402344 4.796875v49.875l-38.402344 4.800781c-3.175781.394532-5.808594 2.648438-6.695312 5.726563-2.050782 7.066406-4.730469 13.9375-8 20.527343h-36.878906c11.785156-16.289062 18.089843-35.902343 18.007812-56.007812 0-53.019531-42.980469-96-96-96s-96 42.980469-96 96c-.082031 20.101562 6.222656 39.710938 18.007812 56h-36.863281c-3.277343-6.589844-5.960937-13.460938-8.015625-20.527344zm179.878906 20.527344h-114.015624c-14.804688-14.867188-23.082032-35.019531-22.992188-56 0-44.183594 35.816406-80 80-80s80 35.816406 80 80c.089844 20.980469-8.1875 41.132812-22.992188 56zm142.992188 0h-67.433594c1.496094-3.566406 2.898438-7.199219 4.128906-11.023438l40.296876-5.039062c4.003906-.5 7.007812-3.902344 7.007812-7.9375v-64c0-4.035156-3.003906-7.4375-7.007812-7.9375l-40.289063-5.039062c-2.210937-6.851563-4.949219-13.523438-8.183594-19.960938l24.839844-32c2.472656-3.183594 2.1875-7.707031-.664063-10.558594l-45.191406-45.199218c-2.851562-2.855469-7.382812-3.140626-10.566406-.664063l-32 24.839844c-6.433594-3.238281-13.101562-5.972657-19.953125-8.183594l-5.039063-40.289063c-.5-4.003906-3.910156-7.011718-7.945312-7.007812h-64c-4.035156 0-7.4375 3.003906-7.9375 7.007812l-5.039062 40.289063c-6.851563 2.210937-13.519532 4.945313-19.953126 8.183594l-32-24.839844c-3.183593-2.476563-7.714843-2.191406-10.566406.664063l-45.191406 45.199218c-2.851562 2.851563-3.136719 7.375-.664062 10.558594l24.839843 32c-3.234375 6.4375-5.972656 13.109375-8.183593 19.960938l-40.289063 5.039062c-4.003906.496094-7.015625 3.902344-7.015625 7.9375v64c0 4.035156 3.003906 7.4375 7.007812 7.9375l40.296876 5.039062c1.230468 3.792969 2.632812 7.457032 4.128906 11.023438h-67.433594c-13.253906 0-24-10.746094-24-24v-360h448v360c0 13.253906-10.746094 24-24 24zm0 0"
       id="path66" />
    <path
       d="m48.640625 43.039062c.175781.511719.417969.996094.71875 1.441407.296875.417969.617187.820312.960937 1.199219.75.742187 1.652344 1.3125 2.640626 1.679687.949218.449219 1.988281.667969 3.039062.640625.507812-.011719 1.011719-.066406 1.511719-.160156.53125-.074219 1.050781-.238282 1.527343-.480469.511719-.175781.996094-.417969 1.441407-.71875.417969-.296875.816406-.617187 1.199219-.960937.34375-.378907.664062-.78125.960937-1.199219.300781-.449219.539063-.933594.71875-1.441407.234375-.449218.390625-.9375.472656-1.4375.09375-.53125.152344-1.066406.167969-1.601562-.03125-2.117188-.859375-4.144531-2.320312-5.679688-.382813-.34375-.78125-.664062-1.199219-.960937-.445313-.300781-.929688-.542969-1.441407-.71875-.476562-.242187-.996093-.40625-1.527343-.480469-2.605469-.449218-5.269531.351563-7.199219 2.160156-1.460938 1.53125-2.289062 3.5625-2.3125 5.679688.015625.535156.070312 1.070312.160156 1.601562.085938.5.25.984376.480469 1.4375zm0 0"
       id="path68" />
    <path
       d="m80.640625 43.039062c.175781.511719.417969.996094.71875 1.441407.296875.417969.617187.820312.960937 1.199219.378907.34375.777344.664062 1.191407.960937.449219.300781.9375.542969 1.449219.71875.453124.230469.9375.394531 1.4375.480469.53125.089844 1.066406.144531 1.601562.160156.507812-.011719 1.011719-.066406 1.511719-.160156.53125-.074219 1.050781-.238282 1.527343-.480469.96875-.40625 1.863282-.976563 2.640626-1.679687 1.460937-1.535157 2.289062-3.5625 2.320312-5.679688-.011719-1.046875-.230469-2.078125-.640625-3.039062-.367187-.988282-.9375-1.890626-1.679687-2.640626-.394532-.363281-.820313-.683593-1.28125-.960937-.40625-.316406-.867188-.558594-1.359376-.71875-.476562-.242187-.996093-.40625-1.527343-.480469-2.609375-.488281-5.289063.316406-7.199219 2.160156-.742188.75-1.3125 1.652344-1.679688 2.640626-.445312.949218-.664062 1.988281-.632812 3.039062-.027344.539062.027344 1.078125.160156 1.601562.085938.5.25.984376.480469 1.4375zm0 0"
       id="path70" />
    <path
       d="m116.960938 47.359375c.960937.410156 1.992187.628906 3.039062.640625 3.25.019531 6.1875-1.929688 7.433594-4.933594 1.246094-3 .554687-6.457031-1.753906-8.746094-2.289063-2.308593-5.746094-3-8.746094-1.753906-3.003906 1.246094-4.953125 4.183594-4.933594 7.433594.027344 2.117188.855469 4.148438 2.320312 5.679688.765626.722656 1.660157 1.292968 2.640626 1.679687zm0 0"
       id="path72" />
    <path
       d="m64 128h32v16h-32zm0 0"
       id="path74" />
    <path
       d="m112 128h16v16h-16zm0 0"
       id="path76" />
    <path
       d="m64 160h64v16h-64zm0 0"
       id="path78" />
    <path
       d="m104 192h-16v48c0 2.121094.84375 4.15625 2.34375 5.65625l16 16 11.3125-11.3125-13.65625-13.65625zm0 0"
       id="path80" />
    <path
       d="m352 128h48v16h-48zm0 0"
       id="path82" />
    <path
       d="m320 160h80v16h-80zm0 0"
       id="path84" />
    <path
       d="m320 192h80v16h-80zm0 0"
       id="path86" />
    <path
       d="m320 128h16v16h-16zm0 0"
       id="path88" />
  </symbol>
  <!-- arc travelled by the pointer -->
  <g
     id="service-collection">
    <!-- this gets filled dynamically -->
  </g>
  <use
     x="185"
     y="30"
     width="280"
     height="280"
     xlink:href="#circle-nav-copy"
     class="nav-copy"
     id="use106" />
  <text
     x="270"
     y="250"
     class="learn-more-text"
     id="text109">Management</text>
  <g
     id="g558"
     transform="translate(0,134.95763)">
    <svg
       id="svg99"
       version="1.1"
       viewBox="0 0 500 500"
       height="350"
       width="350"
       y="0"
       x="150">
      <linearGradient
         y2="-0.2102"
         x2="250.2542"
         y1="496.28299"
         x1="250.2542"
         gradientUnits="userSpaceOnUse"
         id="a">
        <stop
           id="stop92"
           stop-color="#0F68A9"
           offset="0" />
        <stop
           id="stop94"
           stop-opacity="0"
           stop-color="#3DDEED"
           offset="1" />
      </linearGradient>
      <path
         id="path97"
         d="m 250.3,0 c 137,0 248.1,111.1 248.1,248.1 0,137 -111.1,248.1 -248.1,248.1 C 113.3,496.2 2.2,385.1 2.2,248.1 2.2,111.1 113.2,0 250.3,0 112.5,0 0.8,111.7 0.8,249.5 0.8,387.3 112.5,499 250.3,499 388.1,499 499.8,387.3 499.8,249.5 499.8,111.7 388,0 250.3,0 Z"
         style="fill:url(#a)"
         inkscape:connector-curvature="0" />
    </svg>
    <a
       id="a104"
       href="index.php">
      <circle
         id="circle102"
         class="center"
         r="140"
         cy="170"
         cx="325" />
    </a>
    <rect
       height="30"
       width="140"
       y="228.65466"
       x="257.96082"
       id="learn-more"
       data-url="/industries" />
    <g
       style="fill:#ffffff"
       id="g46"
       transform="matrix(0.28460449,0,0,0.25972145,257.09217,82.886655)">
      <path
         style="fill:#ffffff"
         d="M 440,0 H 40 C 17.917969,0.0273438 0.0273438,17.917969 0,40 v 400 c 0.0273438,22.08203 17.917969,39.97266 40,40 h 400 c 22.08203,-0.0273 39.97266,-17.91797 40,-40 V 40 C 479.97266,17.917969 462.08203,0.0273438 440,0 Z M 40,16 h 400 c 13.25391,0 24,10.746094 24,24 V 64 H 16 V 40 C 16,26.746094 26.746094,16 40,16 Z m 77.12891,427.47266 c -0.88672,-3.07813 -3.51953,-5.33204 -6.69532,-5.73047 L 72.03125,432.94531 V 383.0625 l 38.40234,-4.79688 c 3.1836,-0.39843 5.82032,-2.66015 6.70313,-5.74609 2.58984,-9.18359 6.21875,-18.03906 10.81641,-26.39844 1.55859,-2.80468 1.29687,-6.26953 -0.67188,-8.80078 l -23.67187,-30.5039 35.19921,-35.19922 30.50391,23.67187 c 2.53125,1.96875 5.99609,2.23828 8.80078,0.67969 8.35547,-4.60938 17.21484,-8.23828 26.39844,-10.82422 3.08984,-0.87891 5.35547,-3.51953 5.7539,-6.70312 l 4.79688,-38.40235 h 49.875 l 4.79687,38.40235 c 0.39844,3.18359 2.66407,5.82421 5.75391,6.70312 9.18359,2.58594 18.04297,6.21484 26.39844,10.82422 2.80469,1.55859 6.26953,1.28906 8.80078,-0.67969 l 30.50391,-23.67187 35.19921,35.19922 -23.67187,30.51953 c -1.96875,2.53515 -2.23047,5.99609 -0.67188,8.80078 4.59766,8.35937 8.22657,17.21484 10.81641,26.39844 0.88281,3.08593 3.51953,5.34765 6.70313,5.74609 l 38.40234,4.79687 v 49.875 l -38.40234,4.80079 c -3.17578,0.39453 -5.8086,2.64843 -6.69532,5.72656 -2.05078,7.0664 -4.73047,13.9375 -8,20.52734 h -36.8789 C 329.77734,447.71875 336.08203,428.10547 336,408 c 0,-53.01953 -42.98047,-96 -96,-96 -53.01953,0 -96,42.98047 -96,96 -0.082,20.10156 6.22266,39.71094 18.00781,56 h -36.86328 c -3.27734,-6.58984 -5.96094,-13.46094 -8.01562,-20.52734 z M 297.00781,464 H 182.99219 C 168.1875,449.13281 159.91016,428.98047 160,408 c 0,-44.18359 35.81641,-80 80,-80 44.18359,0 80,35.81641 80,80 0.0898,20.98047 -8.1875,41.13281 -22.99219,56 z M 440,464 h -67.43359 c 1.49609,-3.56641 2.89843,-7.19922 4.1289,-11.02344 l 40.29688,-5.03906 C 420.99609,447.4375 424,444.03516 424,440 v -64 c 0,-4.03516 -3.00391,-7.4375 -7.00781,-7.9375 l -40.28907,-5.03906 C 374.49219,356.17187 371.75391,349.5 368.51953,343.0625 l 24.83984,-32 c 2.47266,-3.18359 2.1875,-7.70703 -0.66406,-10.55859 l -45.1914,-45.19922 c -2.85157,-2.85547 -7.38282,-3.14063 -10.56641,-0.66406 l -32,24.83984 c -6.43359,-3.23828 -13.10156,-5.97266 -19.95313,-8.1836 l -5.03906,-40.28906 C 279.44531,227.00391 276.03516,223.99609 272,224 h -64 c -4.03516,0 -7.4375,3.00391 -7.9375,7.00781 l -5.03906,40.28906 c -6.85157,2.21094 -13.51953,4.94532 -19.95313,8.1836 l -32,-24.83985 c -3.18359,-2.47656 -7.71484,-2.1914 -10.5664,0.66407 L 87.3125,300.50391 c -2.851562,2.85156 -3.136719,7.375 -0.664062,10.55859 l 24.839842,32 c -3.23437,6.4375 -5.97265,13.10937 -8.18359,19.96094 L 63.015625,368.0625 C 59.011719,368.55859 56,371.96484 56,376 v 64 c 0,4.03516 3.003906,7.4375 7.007812,7.9375 l 40.296878,5.03906 c 1.23047,3.79297 2.63281,7.45703 4.1289,11.02344 H 40 C 26.746094,464 16,453.25391 16,440 V 80 h 448 v 360 c 0,13.25391 -10.74609,24 -24,24 z m 0,0"
         id="path2"
         inkscape:connector-curvature="0" />
      <path
         style="fill:#ffffff"
         d="m 48.640625,43.039062 c 0.175781,0.511719 0.417969,0.996094 0.71875,1.441407 0.296875,0.417969 0.617187,0.820312 0.960937,1.199219 0.75,0.742187 1.652344,1.3125 2.640626,1.679687 C 53.910156,47.808594 54.949219,48.027344 56,48 c 0.507812,-0.01172 1.011719,-0.06641 1.511719,-0.160156 0.53125,-0.07422 1.050781,-0.238282 1.527343,-0.480469 0.511719,-0.175781 0.996094,-0.417969 1.441407,-0.71875 0.417969,-0.296875 0.816406,-0.617187 1.199219,-0.960937 0.34375,-0.378907 0.664062,-0.78125 0.960937,-1.199219 0.300781,-0.449219 0.539063,-0.933594 0.71875,-1.441407 0.234375,-0.449218 0.390625,-0.9375 0.472656,-1.4375 C 63.925781,41.070312 63.984375,40.535156 64,40 63.96875,37.882812 63.140625,35.855469 61.679688,34.320312 61.296875,33.976562 60.898438,33.65625 60.480469,33.359375 60.035156,33.058594 59.550781,32.816406 59.039062,32.640625 58.5625,32.398438 58.042969,32.234375 57.511719,32.160156 54.90625,31.710938 52.242188,32.511719 50.3125,34.320312 48.851562,35.851562 48.023438,37.882812 48,40 c 0.01563,0.535156 0.07031,1.070312 0.160156,1.601562 0.08594,0.5 0.25,0.984376 0.480469,1.4375 z m 0,0"
         id="path4"
         inkscape:connector-curvature="0" />
      <path
         style="fill:#ffffff"
         d="m 80.640625,43.039062 c 0.175781,0.511719 0.417969,0.996094 0.71875,1.441407 0.296875,0.417969 0.617187,0.820312 0.960937,1.199219 0.378907,0.34375 0.777344,0.664062 1.191407,0.960937 0.449219,0.300781 0.9375,0.542969 1.449219,0.71875 0.453124,0.230469 0.9375,0.394531 1.4375,0.480469 C 86.929688,47.929688 87.464844,47.984375 88,48 c 0.507812,-0.01172 1.011719,-0.06641 1.511719,-0.160156 0.53125,-0.07422 1.050781,-0.238282 1.527343,-0.480469 0.96875,-0.40625 1.863282,-0.976563 2.640626,-1.679687 C 95.140625,44.144531 95.96875,42.117188 96,40 c -0.01172,-1.046875 -0.230469,-2.078125 -0.640625,-3.039062 -0.367187,-0.988282 -0.9375,-1.890626 -1.679687,-2.640626 -0.394532,-0.363281 -0.820313,-0.683593 -1.28125,-0.960937 -0.40625,-0.316406 -0.867188,-0.558594 -1.359376,-0.71875 -0.476562,-0.242187 -0.996093,-0.40625 -1.527343,-0.480469 -2.609375,-0.488281 -5.289063,0.316406 -7.199219,2.160156 -0.742188,0.75 -1.3125,1.652344 -1.679688,2.640626 C 80.1875,37.910156 79.96875,38.949219 80,40 c -0.02734,0.539062 0.02734,1.078125 0.160156,1.601562 0.08594,0.5 0.25,0.984376 0.480469,1.4375 z m 0,0"
         id="path6"
         inkscape:connector-curvature="0" />
      <path
         style="fill:#ffffff"
         d="M 116.96094,47.359375 C 117.92188,47.769531 118.95313,47.988281 120,48 c 3.25,0.01953 6.1875,-1.929688 7.43359,-4.933594 1.2461,-3 0.55469,-6.457031 -1.7539,-8.746094 -2.28906,-2.308593 -5.7461,-3 -8.7461,-1.753906 C 113.92969,33.8125 111.98047,36.75 112,40 c 0.0273,2.117188 0.85547,4.148438 2.32031,5.679688 0.76563,0.722656 1.66016,1.292968 2.64063,1.679687 z m 0,0"
         id="path8"
         inkscape:connector-curvature="0" />
      <path
         style="fill:#ffffff"
         d="m 64,128 h 32 v 16 H 64 Z m 0,0"
         id="path10"
         inkscape:connector-curvature="0" />
      <path
         style="fill:#ffffff"
         d="m 112,128 h 16 v 16 h -16 z m 0,0"
         id="path12"
         inkscape:connector-curvature="0" />
      <path
         style="fill:#ffffff"
         d="m 64,160 h 64 v 16 H 64 Z m 0,0"
         id="path14"
         inkscape:connector-curvature="0" />
      <path
         style="fill:#ffffff"
         d="M 104,192 H 88 v 48 c 0,2.12109 0.84375,4.15625 2.34375,5.65625 l 16,16 11.3125,-11.3125 L 104,236.6875 Z m 0,0"
         id="path16"
         inkscape:connector-curvature="0" />
      <path
         style="fill:#ffffff"
         d="m 352,128 h 48 v 16 h -48 z m 0,0"
         id="path18"
         inkscape:connector-curvature="0" />
      <path
         style="fill:#ffffff"
         d="m 320,160 h 80 v 16 h -80 z m 0,0"
         id="path20-8"
         inkscape:connector-curvature="0" />
      <path
         style="fill:#ffffff"
         d="m 320,192 h 80 v 16 h -80 z m 0,0"
         id="path22-7"
         inkscape:connector-curvature="0" />
      <path
         style="fill:#ffffff"
         d="m 320,128 h 16 v 16 h -16 z m 0,0"
         id="path24"
         inkscape:connector-curvature="0" />
    </g>
  </g>
</svg>
